<svg xmlns="http://www.w3.org/2000/svg"><defs><font horiz-adv-x="1179"><font-face units-per-em="2048" ascent="1638" descent="-410"/><glyph horiz-adv-x="501"/><glyph horiz-adv-x="501"/><glyph horiz-adv-x="501"/><glyph unicode="!" horiz-adv-x="555" d="M33 96q0 33 15 62.5t40 53.5 56.5 37 66.5 13q53 0 88-36t35-85q0-33-17.5-62.5t-44-53-59.5-37-66-13.5q-51 0-82.5 36t-31.5 85zm114 273l170 1028h281l-272-1028h-179z"/><glyph unicode=""" horiz-adv-x="768" d="M246 1057l51 442h248l-144-442h-155zm321 0l51 442h248l-143-442h-156z"/><glyph unicode="#" horiz-adv-x="1269" d="M49 424l72 170h198l78 182h-209l68 168h213l168 395h213l-168-395h176l168 395h213l-168-395h207l-68-168h-211l-77-182h221l-72-170h-221l-180-424h-213l180 424h-176l-180-424h-213l180 424h-199zm483 170h177l77 182h-176z"/><glyph unicode="$" horiz-adv-x="1073" d="M-20 88l104 211q53-51 127-85t172-42l92 428q-47 16-95 41t-88 61.5-65.5 91-25.5 132.5q0 111 33.5 188.5t93 129.5 138.5 80 171 34l37 178h164l-39-180q84-8 154.5-27.5t119.5-44.5l-100-217q-43 33-100.5 56.5t-116.5 33.5l-76-354q53-23 104.5-52.5t91-70.5 63.5-96.5 24-130.5q0-115-38-198t-100.5-140.5-145.5-89-173-41.5l-37-181h-164l37 174q-115 6-207 38t-155 73zm448 909q0-47 27.5-77.5t74.5-55.5l64 297q-74-12-120-52t-46-112zm121-813q90 23 133 75t43 120q0 53-29.5 92t-70.5 64z"/><glyph unicode="%" horiz-adv-x="1726" d="M156 887q0 94 31.5 180t87 151.5 131 104.5 165.5 39q63 0 110.5-23.5t79.5-63.5 47-93.5 15-112.5q0-86-30.5-170t-87-149.5-134-106.5-170.5-41q-63 0-109 22.5t-77 60.5-45 90.5-14 111.5zm10-936l1259 1464h185l-1260-1464h-184zm166 942q0-158 100-158 55 0 96 31t68 79 40 106.5 13 113.5q0 72-26.5 118t-83.5 46q-66 0-106-38t-62.5-91-30.5-110.5-8-96.5zm622-619q0 94 32 180.5t87 152 131 104.5 166 39q63 0 110.5-24t79-63.5 47-93 15.5-112.5q0-86-30.5-170t-87-149.5-134.5-106.5-170-41q-63 0-109.5 22.5t-77 60.5-45 90-14.5 111zm176 7q0-158 101-158 55 0 96 30.5t67.5 79 40 106.5 13.5 114q0 72-26.5 117.5t-84.5 45.5q-66 0-105.5-37.5t-62-91-31-110.5-8.5-96z"/><glyph unicode="&" horiz-adv-x="1435" d="M57 299q0 61 24.5 129t72 129 116 114.5 154.5 88.5q-70 109-70 229 0 90 32 160t84 117 119.5 71.5 141.5 24.5q70 0 141.5-23.5t133.5-66.5l-101-197q-14 16-37.5 33.5t-50 31-55.5 22.5-55 9q-59 0-104.5-43t-45.5-122q0-53 24.5-98.5t59.5-92.5l279-369q18 51 18 111 0 35-8 74t-25 78l-102-7 28 127 609 76-33-157-299-23q25-78 25-162 0-152-89-282l213-281h-256l-98 127q-88-70-201.5-111t-248.5-41q-100 0-175 27t-124.5 72-73 103.5-23.5 121.5zm246 45q0-86 58.5-129t150.5-43q84 0 154.5 25.5t128.5 72.5l-275 359q-49-12-90-41t-68.5-69-43-86-15.5-89z"/><glyph unicode="'" horiz-adv-x="446" d="M246 1057l51 442h248l-144-442h-155z"/><glyph unicode="(" horiz-adv-x="667" d="M84 467q0 162 45 314.5t128 292.5 199.5 267 260.5 238l129-51q-166-156-268.5-302.5t-159-284.5-74.5-269-18-256q0-59 7-134t25.5-156 48-162 72.5-152l-147-52q-123 135-185.5 322.5t-62.5 384.5z"/><glyph unicode=")" horiz-adv-x="667" d="M-129-188q125 121 222 243.5t164 258 100.5 288 33.5 334.5q0 166-40 317.5t-118 274.5l150 51q59-68 105.5-149.5t78-174 48-189.5 16.5-196q0-160-45-313.5t-128-293.5-200-267-260-236z"/><glyph unicode="*" horiz-adv-x="899" d="M201 1024l260 78-228 78 146 182 149-178v254h209l-108-254 225 178 68-182-263-78 230-78-146-182-149 176v-252h-209l109 252-226-176z"/><glyph unicode="+" horiz-adv-x="989" d="M57 406l35 167h309l66 301h188l-65-301h311l-35-167h-311l-68-322h-188l68 322h-310z"/><glyph unicode="," horiz-adv-x="532" d="M-63-242l141 232h-51l59 280h244l-66-311-264-252z"/><glyph unicode="-" horiz-adv-x="960" d="M102 406l35 167h692l-34-167h-693z"/><glyph unicode="." horiz-adv-x="516" d="M20 96q0 33 15.5 63.5t41 55.5 57.5 40 67 15q51 0 86-38.5t35-90.5q0-33-16.5-62.5t-43-53-59.5-37-66-13.5q-53 0-85 35t-32 86z"/><glyph unicode="/" horiz-adv-x="956" d="M-70-117l899 1555h236l-899-1555h-236z"/><glyph unicode="0" horiz-adv-x="1312" d="M111 485q0 170 53 328t148.5 279.5 227.5 195.5 287 74q106 0 185.5-42t131.5-113.5 78.5-167 26.5-201.5q0-158-53-311.5t-149.5-276.5-230.5-199-296-76q-104 0-182 40t-128 110-74.5 163-24.5 197zm251 4q0-154 52.5-235.5t154.5-81.5q106 0 187.5 61.5t135.5 157.5 81.5 215 27.5 234q0 143-54 234t-169 91q-117 0-195.5-67.5t-127.5-169-71-219.5-22-220z"/><glyph unicode="1" horiz-adv-x="684" d="M150 0l210 995-182-73v204l494 226-287-1352h-235z"/><glyph unicode="2" horiz-adv-x="1030" d="M-23 0l43 205q74 78 159 152.5t169 146 162 141.5 138.5 137.5 96 132 35.5 127.5q0 70-49 99.5t-127 29.5q-88 0-180-27.5t-164-64.5l-10 176q43 20 97 40t111.5 35.5 115 23.5 110.5 8q154 0 244-76t90-201q0-76-32-149.5t-86-147-126-146.5-151.5-145.5-161.5-146.5-158-145h547l-43-205h-830z"/><glyph unicode="3" horiz-adv-x="1085" d="M-33 115l96 186q59-59 140.5-94t181.5-35q158 0 239 79t81 212q0 80-51.5 126t-170.5 46h-55l37 178h63q55 0 99.5 19.5t75 53.5 47 77 16.5 92q0 66-42 92.5t-103 26.5q-39 0-83-8.5t-86-24-80-35-67-41.5l-14 188q88 47 195.5 78t207.5 31q154 0 242-76t88-201q0-66-20.5-118t-56.5-95-85-76.5-104-60.5q94-35 146-101.5t52-166.5q0-94-39.5-183t-115.5-158-188.5-110-256.5-41q-254 1-389 140z"/><glyph unicode="4" horiz-adv-x="1101" d="M18 389l39 184 738 779h245l-166-779h142l-39-184h-141l-82-389h-236l82 389h-582zm271 184h350l106 496z"/><glyph unicode="5" horiz-adv-x="1093" d="M-16 113l100 194q25-29 59.5-52.5t76.5-40.5 89-27.5 94-10.5q61 0 120 16.5t103 53.5 71.5 93 27.5 136q0 72-47 118t-166 46q-63 0-142-12.5t-153-38.5l-51 30 237 744h695l-47-215h-504l-98-324q45 12 93 17.5t87 5.5q162 0 257-86t95-242q0-104-40-202.5t-116.5-173-191.5-121-262-46.5q-125 0-223 36t-164 102z"/><glyph unicode="6" horiz-adv-x="1116" d="M104 401q0 78 13.5 179.5t45.5 208 84 209 129 183.5 181.5 130 241.5 49q37 0 81-5t87-17.5 81.5-33 63.5-51.5l-90-180q-57 51-128 71.5t-128 20.5q-86 0-151.5-37.5t-112.5-99-77-137.5-46-152q-4-16-6-29.5t-4-29.5l6-2q49 74 130 108.5t179 34.5q92 0 153.5-31.5t97.5-79.5 50-106.5 14-114.5q0-82-31.5-173t-98-166.5-169-125-241.5-49.5q-96 0-163 31t-110 87.5-62.5 134-19.5 173.5zm240-63q0-80 40-128t116-48q57 0 105 23.5t82 65.5 52.5 99.5 18.5 124.5q0 66-33 113t-115 47q-63 0-112-24.5t-83-65.5-52.5-94.5-18.5-112.5z"/><glyph unicode="7" horiz-adv-x="940" d="M37 0q4 18 7 39.5t7 40.5q16 80 58.5 172t101.5 188.5 131 193.5 148.5 189 154.5 174 150 150h-596l45 215h829l-45-215q-72-63-149.5-147.5t-151.5-179.5-142.5-195.5-123.5-197.5-94-185-54-160l-16-82h-260z"/><glyph unicode="8" horiz-adv-x="1118" d="M57 299q0 162 91.5 279.5t244.5 160.5l2 9q-55 23-92 80t-37 143q0 84 33 155.5t93.5 124 145.5 82 191 29.5q156 0 241-71.5t85-190.5q0-63-20.5-118.5t-55.5-100.5-80-79-94-52l-2-9q92-23 137-95.5t45-176.5q0-96-33.5-185t-103.5-158-173.5-110-242.5-41q-102 0-174 27t-116 71-64.5 102-20.5 124zm236 29q0-86 47-130t131-44q117 0 195.5 75.5t78.5 210.5q0 39-9 75t-30.5 63.5-54.5 45-78 17.5q-70 0-122-30.5t-87.5-78-53-101.5-17.5-103zm196 637q0-63 33-101.5t92-38.5q43 0 80 17.5t63.5 47.5 42 70.5 15.5 90.5q0 59-31.5 94t-95.5 35q-92 0-145.5-58.5t-53.5-156.5z"/><glyph unicode="9" horiz-adv-x="1116" d="M49 82l90 180q57-51 128-71.5t128-20.5q96 0 165 46t115 116.5 73.5 156.5 44.5 166l-7 2q-49-74-130-108.5t-179-34.5q-92 0-153.5 32t-97.5 80-50 106.5-14 113.5q0 82 31.5 173t98 167 169 125 241.5 49q94 0 162-31t111-87 62.5-135 19.5-173q0-78-13.5-179.5t-45-208-84-208.5-130-183-182-130.5-240.5-49.5q-37 0-80.5 5.5t-86.5 17.5-82 32.5-64 51.5zm354 762q0-61 32-102.5t114-41.5q63 0 112.5 25t84 65.5 53 94 18.5 112.5q0 80-40 128.5t-118 48.5q-61 0-109-31t-80-78-49.5-105.5-17.5-115.5z"/><glyph unicode=":" horiz-adv-x="563" d="M37 96q0 33 15.5 63.5t41 55.5 57 40 66.5 15q51 0 86-38.5t35-90.5q0-33-16.5-62.5t-43-53-59.5-37-65-13.5q-53 0-85 35t-32 86zm141 662q0 33 15.5 63.5t41 55 57.5 40 66 15.5q51 0 86-39t35-90q0-33-17.5-62.5t-44-53-59-37-63.5-13.5q-53 0-85 35t-32 86z"/><glyph unicode=";" horiz-adv-x="573" d="M-47-242l141 232h-51l59 280h244l-65-311-265-252zm233 1000q0 33 15.5 63.5t41 55 57.5 40 67 15.5q51 0 85.5-39t34.5-90q0-33-17-62.5t-44-53-59.5-37-63.5-13.5q-53 0-85 35t-32 86z"/><glyph unicode="<" horiz-adv-x="808" d="M51 426l29 133 663 397v-190l-460-268-2-11 348-272-78-192z"/><glyph unicode="=" horiz-adv-x="976" d="M76 250l35 168h692l-35-168h-692zm65 311l37 168h692l-36-168h-693z"/><glyph unicode=">" horiz-adv-x="811" d="M35 23v192l463 272 2 11-346 268 77 190 500-397-29-133z"/><glyph unicode="?" horiz-adv-x="843" d="M137 96q0 33 15.5 62.5t41 53.5 57.5 37 64 13q53 0 88-36t35-85q0-33-17.5-62.5t-44-53-59-37-65.5-13.5q-51 0-83 36t-32 85zm90 275q20 100 59.5 178t83.5 140.5 90 112.5 83 97 60.5 92 23.5 99q0 63-40 88.5t-93 25.5q-66 0-135.5-28.5t-116.5-73.5l-11 196q66 43 158 75t184 32q131 0 208-75t77-191q0-72-24.5-130.5t-64.5-110.5-88-105.5-94-115-86-136-61-170.5h-213z"/><glyph unicode="@" horiz-adv-x="1478" d="M49 262q0 80 26.5 175t79 191.5 129 185.5 176 157.5 220.5 109.5 262 41q125 0 213-35.5t144.5-95 82-134.5 25.5-150q0-109-46-208.5t-121-177-168-123.5-187-46q-59 0-95 27.5t-36 80.5q0 18 6 41-49-70-118-110.5t-122-40.5q-51 0-91 46t-40 138q0 102 47 187t118 146.5 155 95.5 159 34q27 0 57.5-5.5t59.5-14.5 52.5-24.5 33.5-35.5l-125-291q-12-29-20-57.5t-8-38.5q0-12 6-22.5t28-10.5q41 0 84 36t79 91 58.5 123.5 22.5 134.5q0 55-15.5 105.5t-50 90.5-90 63.5-133.5 23.5q-145 0-264-67t-204-169-132-224-47-235q0-84 25.5-143t71.5-98 108.5-57.5 136.5-18.5q80 0 154.5 17.5t136 43 109 54 75.5 49.5l-35-164q-25-18-74.5-46t-117.5-53.5-147.5-43-163.5-17.5q-104 0-194.5 33t-156 94.5-102.5 148.5-37 193zm543 96q0-51 33-51 18 0 42.5 15.5t50 43 49.5 63.5 40 79l55 147q-16 8-37 9-47 0-89-34t-73.5-81-51-99.5-19.5-91.5z"/><glyph unicode="A" horiz-adv-x="1292" d="M-106 0l811 1352h202l291-1352h-256l-72 393h-510l-221-393h-245zm571 578h373l-90 497z"/><glyph unicode="B" horiz-adv-x="1169" d="M61 0l287 1352q25 2 66 3t88 3 94 3 84 1q188 0 286.5-71.5t98.5-209.5q0-104-51-190t-156-143q94-35 146.5-106t52.5-175q0-94-40-183t-117-158-189.5-110-257.5-41q-113 0-216.5 7.5t-175.5 17.5zm273 176q35-4 75-4h80q147 0 234.5 77t87.5 212q0 80-53 128t-174 48q-39 0-78-1t-76-3zm133 633q25-2 51-2h53q53 0 98.5 20.5t77 54 49 79 17.5 92.5q0 51-35 83.5t-100 32.5q-41 0-74-3t-61-7z"/><glyph unicode="C" horiz-adv-x="1290" d="M109 508q0 166 57 320.5t166.5 272.5 266.5 189.5 355 71.5q111 0 216.5-23.5t177.5-64.5l-105-213q-55 45-141 72.5t-203 27.5q-147 0-249.5-53t-166-141-92.5-202-29-233q0-174 82-265t242-91q123 0 231.5 37t186.5 90l18-203q-92-49-216-87t-269-38q-139 0-238.5 42t-164 115-95 170-30.5 206z"/><glyph unicode="D" horiz-adv-x="1458" d="M61 0l287 1352q29 2 86.5 4t120.5 3 121.5 2 91.5 1q197 0 317.5-41t188.5-113q59-63 87-165.5t28-213.5q0-203-59.5-360.5t-178.5-267-298-167-417-57.5q-86 0-183.5 6.5t-191.5 16.5zm273 180q57-4 110.5-6t90.5-2q180 0 296.5 48t185 135 95.5 207 27 263q0 166-94.5 253t-321.5 87h-77q-48 0-103-2z"/><glyph unicode="E" horiz-adv-x="1081" d="M61 0l287 1352h782l-43-205h-548l-70-328h412l-43-205h-412l-86-409h588l-43-205h-824z"/><glyph unicode="F" horiz-adv-x="1003" d="M61 0l287 1352h772l-43-205h-538l-70-328h389l-43-205h-389l-129-614h-236z"/><glyph unicode="G" horiz-adv-x="1351" d="M109 508q0 166 57 320.5t165.5 272.5 266.5 189.5 360 71.5q115 0 222.5-23.5t187.5-64.5l-111-213q-61 41-147 70.5t-203 29.5q-170 0-276.5-58.5t-167-150.5-82-204.5-21.5-221.5q0-350 340-350 76 0 124 12.5t102 28.5l71 340h236l-94-444q-104-61-231.5-99.5t-268.5-38.5q-139 0-239.5 42t-165 115-95 169-30.5 207z"/><glyph unicode="H" horiz-adv-x="1478" d="M61 0l287 1352h236l-119-553h647l119 553h235l-286-1352h-236l125 594h-647l-125-594h-236z"/><glyph unicode="I" horiz-adv-x="595" d="M61 0l287 1352h236l-287-1352h-236z"/><glyph unicode="J" horiz-adv-x="595" d="M-174-141q72 0 120 32.5t79.5 83 50 113 30.5 121.5l244 1143h236l-244-1145q-23-109-67-204t-108.5-167-147-113.5-185.5-41.5z"/><glyph unicode="K" horiz-adv-x="1239" d="M61 0l287 1352h236l-125-590q68 53 132 107.5t122 107.5q106 98 196 191.5t160 183.5h258q-115-123-219-225.5t-225-213.5q-45-41-93.5-84t-99.5-86l447-743h-273l-356 592q-27-23-52.5-42.5t-49.5-37.5l-109-512h-236z"/><glyph unicode="L" horiz-adv-x="1007" d="M61 0l287 1352h236l-244-1147h563l-43-205h-799z"/><glyph unicode="M" horiz-adv-x="1806" d="M61 0l287 1352h268l242-1033 668 1033h268l-287-1352h-233l188 891-577-891h-189l-211 891-188-891h-236z"/><glyph unicode="N" horiz-adv-x="1478" d="M61 0l287 1352h289l383-994 211 994h235l-286-1352h-289l-383 991-211-991h-236z"/><glyph unicode="O" horiz-adv-x="1531" d="M109 510q0 168 59 321.5t168.5 271.5 262.5 188.5 339 70.5q135 0 234.5-43t166-118 99-174 32.5-212q0-154-57-303.5t-166.5-269-265.5-193.5-352-74q-135 0-233.5 42t-162 115-94 170-30.5 208zm245 4q0-152 83-245t249-93q135 0 237.5 57.5t170 148.5 101.5 204.5 34 228.5q0 76-20.5 139.5t-63.5 109.5-108.5 71.5-157.5 25.5q-141 0-240.5-58.5t-162-151.5-92.5-208.5-30-228.5z"/><glyph unicode="P" horiz-adv-x="1091" d="M61 0l287 1352q31 2 72 4t85 3l88 2q44 1 83 1 201 0 316.5-89t115.5-259q0-98-37-189.5t-108.5-162-178-112.5-245.5-42h-69q-34 0-64 2l-109-510h-236zm385 707q29-2 61-2h66q141 0 212 82.5t71 213.5q0 72-43 118t-145 46h-64q-31 0-61-2z"/><glyph unicode="Q" horiz-adv-x="1536" d="M111 510q0 168 59 321.5t169 271.5 262.5 188.5 338.5 70.5q135 0 234.5-43t166-118 99.5-174 33-212q0-150-55.5-296t-159-264-252-193.5-336.5-84.5q72-8 134-32.5t123.5-50 126-46 142.5-20.5q92 0 207 41l-96-201q-41-14-78-19t-72-5q-86 0-158.5 27.5t-142.5 59-138.5 59.5-144.5 28q-45 0-116.5-16.5t-145.5-63.5l-8 147q66 45 137.5 66.5t130.5 25.5q-121 8-206.5 54.5t-143 118-84 164-26.5 196.5zm243 4q0-152 83-245t249-93q135 0 237.5 57.5t170 148.5 101.5 204.5 34 228.5q0 76-20.5 139.5t-63.5 109.5-108.5 71.5-157.5 25.5q-141 0-240.5-58.5t-162-151.5-92.5-208.5-30-228.5z"/><glyph unicode="R" horiz-adv-x="1228" d="M61 0l287 1352q33 2 76 4t86 3 81 2 60 1q229 0 347-81t118-234q0-68-19.5-134.5t-60.5-125-107.5-105.5-158.5-74l367-608h-273l-348 578h-46q-24 0-50 2l-123-580h-236zm400 774h127q135 0 206.5 72t71.5 184q0 68-53 101.5t-182 33.5h-39q-23 0-49-2z"/><glyph unicode="S" horiz-adv-x="1120" d="M-8 88l108 221q66-59 153-98t210-39q152 0 221.5 57.5t69.5 145.5q0 49-23.5 86t-58.5 62.5-75 42-71 28.5q-53 18-107 43t-100.5 62.5-75 93-28.5 137.5q0 117 41 199.5t111.5 134 166 75 201.5 23.5q113 0 214.5-22.5t164.5-55.5l-100-217q-63 47-154.5 73.5t-173.5 26.5q-104 0-167.5-41t-63.5-127q0-35 16-61.5t46-47 71-37.5 90-36q59-23 117.5-52.5t104.5-71.5 75-101.5 29-140.5q0-131-50.5-222.5t-132.5-147.5-186.5-81-212.5-25q-135 0-245.5 33t-184.5 80z"/><glyph unicode="T" horiz-adv-x="1095" d="M166 1147l43 205h1018l-43-205h-391l-244-1147h-236l244 1147h-391z"/><glyph unicode="U" horiz-adv-x="1443" d="M133 346q0 66 14 129l187 877h235l-176-828q-8-33-11-62.5t-3-55.5q0-123 69.5-176.5t196.5-53.5q154 0 257.5 81t144.5 267l176 828h225l-186-877q-23-100-74-190t-135-159-200-109-263-40q-123 0-210 29t-142.5 78-80 116.5-24.5 145.5z"/><glyph unicode="V" horiz-adv-x="1304" d="M141 1352h256l205-1065 615 1065h245l-827-1352h-186z"/><glyph unicode="W" horiz-adv-x="2138" d="M162 1352h256l125-1049 569 1049h231l125-1049 568 1049h256l-789-1352h-194l-150 1028-586-1028h-194z"/><glyph unicode="X" horiz-adv-x="1304" d="M-96 0l647 696-330 656h264l230-529 450 529h258l-610-658 350-694h-264l-254 547-483-547h-258z"/><glyph unicode="Y" horiz-adv-x="1150" d="M137 1352h264l215-613 463 613h260l-651-797-117-555h-235l115 547z"/><glyph unicode="Z" horiz-adv-x="1132" d="M-31 0l43 205 873 942h-641l43 205h897l-43-205-873-942h703l-43-205h-959z"/><glyph unicode="[" horiz-adv-x="577" d="M0-195l367 1729h327l-30-148h-113l-305-1433h112l-30-148h-328z"/><glyph unicode="\" horiz-adv-x="919" d="M246 1438h231l240-1555h-232z"/><glyph unicode="]" horiz-adv-x="577" d="M-70-195l31 148h113l305 1433h-113l31 148h328l-367-1729h-328z"/><glyph unicode="^" horiz-adv-x="712" d="M365 1161l8 15 270 202h16l181-202 4-15-45-59-17-6-174 84-211-84-12 6z"/><glyph unicode="_" horiz-adv-x="948" d="M-106-168l34 168h887l-35-168h-886z"/><glyph unicode="`" horiz-adv-x="448" d="M272 1272q0 18 7.5 40.5t19.5 42 27.5 32 31.5 12.5q8 0 21-6l323-207 5-15-48-73-16-6-354 141q-17 6-17 39z"/><glyph unicode="a" d="M57 367q0 111 37 219t106.5 194 171 139.5 230.5 53.5q98 0 177-33t114-92h8l43 94h176l-200-942h-181l11 129h-9q-72-63-153.5-108.5t-192.5-45.5q-80 0-143.5 30t-106.5 82-65.5 124-22.5 156zm226 22q0-47 10-91t31.5-78 55.5-54.5 81-20.5q33 0 71.5 9.5t78.5 26 77 40 66 53.5l84 394q-47 76-104.5 103.5t-117.5 27.5q-80 0-141-36t-104-94.5-65.5-131-22.5-148.5z"/><glyph unicode="b" horiz-adv-x="1177" d="M23 0l321 1516h223l-141-668q59 59 144 92t184 33q88 0 150.5-31t103.5-83 60-119.5 19-143.5q0-127-43-239.5t-117.5-197.5-176-134.5-215.5-49.5q-111 0-173.5 45.5t-107.5 108.5h-8l-43-129h-180zm280 274q16-31 44-54t59.5-39.5 67.5-26 69-9.5q74 0 132 39t99 99.5 63.5 133 22.5 142.5q0 98-47 169t-149 71q-59 0-129-28t-148-103z"/><glyph unicode="c" horiz-adv-x="1001" d="M57 369q0 111 37 219t113 193 190.5 138.5 268.5 53.5q98 0 187-22.5t138-59.5l-88-182q-39 35-116.5 61.5t-153.5 26.5q-90 0-152.5-37t-101.5-94.5-56.5-127-17.5-132.5q0-104 49-176t156-72q74 0 163 29.5t156 82.5v-192q-66-37-172-70t-219-33q-98 0-169.5 31t-119 85-70 126-22.5 152z"/><glyph unicode="d" horiz-adv-x="1177" d="M57 367q0 111 37 219t106.5 194 171 139.5 230.5 53.5q98 0 169-33t106-92l141 668h223l-321-1516h-181l11 129h-9q-72-63-153.5-108.5t-192.5-45.5q-80 0-143.5 30t-106.5 82-65.5 124-22.5 156zm226 22q0-47 10-91t31.5-78 55.5-54.5 81-20.5q33 0 71.5 9.5t78.5 26 77 40 66 53.5l84 394q-47 76-104.5 103.5t-117.5 27.5q-80 0-141-36t-104-94.5-65.5-131-22.5-148.5z"/><glyph unicode="e" horiz-adv-x="1034" d="M53 369q0 115 43 223t123 193 191.5 136.5 248.5 51.5q154 0 234-71t80-200q0-39-8.5-77.5t-21.5-72.5-28.5-60.5-27.5-40.5h-600q-2-12-2-25v-25q0-51 13-96t40-78.5 69-53 99-19.5q76 0 166 28.5t162 71.5v-168q-31-16-75-35.5t-96.5-36-110.5-28-120-11.5q-96 0-166.5 32t-118 85-71 125-23.5 152zm281 241h399q6 14 11.5 29.5t5.5 32.5q0 55-37 90t-99 35q-90 0-163.5-50.5t-116.5-136.5z"/><glyph unicode="f" horiz-adv-x="634" d="M-47-535l285 1340h-117l24 117 121 18q25 117 49.5 199t49 138 47 91 43.5 57q51 53 122.5 77t151.5 24q10 0 32.5-1t49.5-5 54.5-13.5 49.5-23.5l-88-174q-16 12-59 33.5t-88 21.5q-27 0-48.5-12.5t-40-45-35.5-88-36-141.5l-28-135h180l-29-137h-180l-285-1340h-225z"/><glyph unicode="g" horiz-adv-x="1173" d="M-12-410l35 172q88-53 191-83.5t198-30.5q66 0 113.5 18.5t82.5 61.5 60.5 115.5 48.5 181.5l20 104q-68-63-151.5-108.5t-192.5-45.5q-82 0-145.5 30t-106.5 82-65.5 124-22.5 156q0 111 37 219t106.5 194 171 139.5 228.5 53.5q98 0 178-33t115-92h8l43 94 170 2-207-983q-27-129-68.5-219t-105-147.5-149.5-84-199-26.5q-53 0-100.5 6t-93.5 18.5-95 32.5-104 49zm291 801q0-49 10-93t31.5-78 55.5-54.5 83-20.5q31 0 68.5 8.5t77.5 26 77 41 68 53.5l84 394q-47 76-105.5 103.5t-118.5 27.5q-78 0-139-36t-104-93.5-65.5-130-22.5-148.5z"/><glyph unicode="h" horiz-adv-x="1128" d="M23 0l321 1516h225l-151-713q78 90 163 130t189 40q53 0 100.5-12.5t82-39 55-70.5 20.5-108q0-47-12-102l-137-641h-226l133 623q6 31 7 55 0 55-29 84t-80 29q-39 0-83-12.5t-86-37-79-59.5-59-78l-129-604h-225z"/><glyph unicode="i" horiz-adv-x="505" d="M20 0l201 942h225l-200-942h-226zm230 1221q0 33 15.5 63.5t41 55 57 40 66.5 15.5q51 0 86-39t35-90q0-33-17.5-62.5t-44-53.5-59.5-37-63-13q-53 0-85 35t-32 86z"/><glyph unicode="j" horiz-adv-x="503" d="M-281-385q12-6 41-6 61 0 105.5 38t74 96 49 126 31.5 127l201 946h223l-200-948q-23-104-66-198.5t-103.5-167-136-114.5-163.5-42q-16 0-29.5 1t-17.5 5zm531 1606q0 33 15.5 63.5t41 55 57 40 66.5 15.5q51 0 85-39t34-90q0-33-16.5-62.5t-43-53.5-59.5-37-65-13q-51 0-83 36t-32 85z"/><glyph unicode="k" horiz-adv-x="1005" d="M23 0l321 1516h225l-186-877 379 303h252l-408-334 273-608h-246l-207 463-96-80-82-383h-225z"/><glyph unicode="l" horiz-adv-x="530" d="M35 0l321 1516h226l-322-1516h-225z"/><glyph unicode="m" horiz-adv-x="1716" d="M20 0l201 942h176l-20-139h8q59 86 157.5 128t198.5 42q96 0 167-37t91-129q59 84 156.5 125t196.5 41q55 0 103-12.5t84-39 56.5-70.5 20.5-108q0-47-12-102l-138-641h-225l133 623q6 33 6 59 0 109-104 109-33 0-74-12.5t-82-36-76.5-58.5-56.5-80v8l-131-612h-225l133 623q6 33 6 59 0 109-104 109-33 0-74-12.5t-82-36-77-58.5-58-80l-129-604h-226z"/><glyph unicode="n" horiz-adv-x="1126" d="M20 0l201 942h176l-20-139h8q61 86 161.5 128t205.5 42q57 0 107-12.5t87-40 58.5-71.5 21.5-108q0-45-12-100l-137-641h-226l133 623q6 31 7 55 0 113-115 113-35 0-77-12.5t-84-36-80-58.5-60-80l-129-604h-226z"/><glyph unicode="o" horiz-adv-x="1130" d="M55 365q0 113 39 222t114 195 186.5 138.5 256.5 52.5q102 0 175-32t120-86 68.5-125 21.5-150q0-115-37.5-223.5t-111.5-193.5-184.5-136.5-258.5-51.5q-102 0-175.5 31t-121 84-70 124-22.5 151zm246 20q0-47 10.5-91t32-77 55-52.5 80.5-19.5q76 0 134.5 37t97.5 95.5 59.5 131 20.5 146.5q0 49-10.5 93t-33 77-56.5 52.5-83 19.5q-76 0-133-37t-96-95.5-58.5-132-19.5-147.5z"/><glyph unicode="p" d="M-92-532l313 1474h180l-10-129h8q33 33 76 62.5t91 51 95.5 34 90.5 12.5q88 0 151.5-31t104.5-82 59-120.5 18-145.5q0-117-35.5-227.5t-104-197.5-171-140.5-237.5-53.5q-92 0-166 27t-109 86l-131-620h-223zm393 800q47-76 106.5-95t112.5-19q84 0 146.5 33.5t104.5 90 63.5 129 21.5 148.5q0 47-9 92t-30.5 79-55.5 54.5-83 20.5q-31 0-69-9.5t-77.5-26.5-77.5-42-67-55z"/><glyph unicode="q" d="M55 348q0 111 35 221.5t103.5 200.5 171 146.5 237.5 56.5q43 0 85-12.5t81-34 70.5-51 50.5-62.5h8l43 129h180l-313-1474h-223l131 620q-59-59-143.5-86t-176.5-27q-90 0-153.5 29t-105.5 80-61.5 118.5-19.5 145.5zm228 35q0-49 11-91t35.5-74 63.5-50 92-18 123 24.5 146 93.5l86 400q-16 31-44 55.5t-61 41.5-67.5 26.5-65.5 9.5q-76 0-135-40t-100-101.5-62.5-135-21.5-141.5z"/><glyph unicode="r" horiz-adv-x="765" d="M20 0l201 942h176l-32-197h8q31 43 62.5 84t66.5 73 77 51.5 93 19.5q82 0 141-53l-96-183q-16 16-58.5 26.5t-72.5 10.5q-41 0-72-19.5t-57.5-51-49-72.5-45.5-84l-116-547h-226z"/><glyph unicode="s" horiz-adv-x="888" d="M-12 78l94 194q55-68 135-100.5t154-32.5q92 0 141 41t49 107q0 27-18.5 46t-67.5 32l-184 49q-51 14-85 37.5t-54.5 53.5-28.5 62.5-8 63.5q0 80 31.5 143.5t87 107.5 131 67.5 163.5 23.5q39 0 83-5t85-16.5 78-27 64-35.5l-99-184q-33 33-100.5 66.5t-157.5 33.5q-78 0-122-31t-44-84q0-25 19.5-46t77.5-36l137-33q63-16 105-42.5t66.5-59.5 34-68.5 9.5-68.5q0-76-34-141.5t-93-114.5-142-77-182-28q-109 0-193.5 32t-131.5 71z"/><glyph unicode="t" horiz-adv-x="673" d="M96 111q0 23 4 50t11 56l125 588h-117l24 123 138 20 96 279h172l-60-285h181l-29-137h-182l-115-541q-8-33-8-59 0-27 11-36t36-9q27 0 55.5 10t87.5 39v-162q-47-33-121.5-52.5t-144.5-19.5q-92 0-128 35t-36 101z"/><glyph unicode="u" horiz-adv-x="1099" d="M63 197q0 45 13 104l137 641h225l-131-612q-6-29-6-49 0-59 34-91t93-32q72 0 141.5 48t116.5 138l127 598h227l-200-942h-176l16 131h-8q-33-47-74-76.5t-86-47-92-25-90-7.5q-57 0-105.5 11.5t-84.5 37-56.5 69-20.5 104.5z"/><glyph unicode="v" horiz-adv-x="1069" d="M92 942h236l125-756 456 756h221l-589-942h-273z"/><glyph unicode="w" horiz-adv-x="1681" d="M100 942h236l92-723 377 723h225l68-723 401 723h232l-543-942h-268l-64 655-342-655h-272z"/><glyph unicode="x" horiz-adv-x="1036" d="M-92 0l465 481-244 461h256l154-317 278 317h256l-442-457 262-485h-256l-166 344-307-344h-256z"/><glyph unicode="y" horiz-adv-x="1060" d="M-172-342q6-2 13-4t34-2q135 0 245.5 99t223.5 280l-276 911h235l186-670 404 670h219l-592-950q-43-72-112.5-161t-154.5-168-183.5-133-198.5-54q-16 0-24.5 1t-18.5 5v176z"/><glyph unicode="z" horiz-adv-x="854" d="M-33 0l39 182 553 578h-409l38 182h643l-38-182-566-578h463l-39-182h-684z"/><glyph unicode="{" horiz-adv-x="593" d="M72 618l22 103q55 2 90 28.5t56.5 61.5 32 73 16.5 64q8 43 18 90t18.5 90 15.5 78 11 58q14 66 36 120t61.5 91.5 101 59 158.5 21.5l-17-104q-51-6-71.5-49t-30.5-90q-6-25-13.5-66t-15.5-84-16-83-13-60q-31-147-94-235.5t-174-114.5q72-18 104.5-79t32.5-153q0-53-14-122.5t-32.5-137-33-125-14.5-84.5q0-29 11.5-53.5t39.5-28.5l-26-104q-72 0-119 14.5t-75.5 40-41 61-12.5 81.5q0 47 15.5 115.5t34 139 33.5 135 15 101.5q0 25-5 50.5t-17.5 47-33.5 34.5-54 15z"/><glyph unicode="|" horiz-adv-x="524" d="M-10-233l383 1806h209l-383-1806h-209z"/><glyph unicode="}" horiz-adv-x="593" d="M-68-217l19 104q51 6 70.5 49.5t29.5 90.5q6 25 14.5 65.5t16.5 83.5 16 82 13 61q31 147 93 235.5t173 115.5q-72 18-103.5 78.5t-31.5 152.5q0 53 14 123t31.5 137.5 32 123.5 14.5 85-10.5 53.5-40.5 28.5l26 104q72 0 119-14t75.5-39.5 41-61.5 12.5-81q0-47-15.5-115.5t-34-139.5-33.5-135.5-15-101.5q0-25 5-50t17.5-46.5 34-35 53.5-15.5l-20-103q-55-4-91-29.5t-57.5-60-32-72.5-16.5-65q-10-43-19-90t-17.5-90-15.5-79l-11-56q-14-66-36-120t-61.5-93-102.5-59.5-157-20.5z"/><glyph unicode="~" horiz-adv-x="970" d="M100 414q2 16 20.5 48t49.5 62.5 73 54 93 23.5q18 0 60-3t93.5-6 103.5-6 93-3q39 0 76 7t72 40l14-41q-2-10-17.5-40t-45-63.5-70.5-59.5-92-26q-16 0-66.5 3.5t-110 6.5-116 6-84.5 3q-47 0-75-10.5t-52-34.5z"/><glyph unicode="¡" horiz-adv-x="524" d="M-94-446l272 1028h178l-170-1028h-280zm264 1255q0 33 17.5 62.5t44 53 59.5 37 65 13.5q51 0 83-36t32-85q0-33-15.5-62.5t-41-53-57-37-64.5-13.5q-53 0-88 36t-35 85z"/><glyph unicode="¢" horiz-adv-x="1019" d="M53 350q0 96 32 190.5t95.5 171 160.5 130 228 65.5l60 275h188l-59-279q70-10 128-28.5t93-45.5l-94-190q-23 27-68 48.5t-98 33.5l-119-559q61 14 121.5 41.5t107.5 64.5v-190q-47-29-116.5-53.5t-149.5-36.5l-57-269h-189l56 261q-84 8-143.5 40.5t-99.5 83-58.5 112.5-18.5 134zm226 45q0-78 33.5-138t99.5-89l118 557q-57-14-104-48t-80-79-50-98.5-17-104.5z"/><glyph unicode="£" horiz-adv-x="1193" d="M-35 74q168 59 261 168.5t120 238.5l6 31h-190l37 168h182q10 90 11 169t18 148q20 98 71 168t118 114 142.5 63.5 147.5 19.5q92 0 177-28.5t128-71.5l-84-187q-16 20-43 39t-61.5 32-73.5 21.5-76 8.5q-96 0-140-50.5t-61-126.5q-14-63-18-145t-16-174h249l-36-168h-246q-20-86-71.5-179t-137.5-171l4-6q55-4 108.5-17.5t106.5-29 108.5-27.5 116.5-12q96 0 199 39l-92-201q-57-27-93-34t-71-7q-82 0-153.5 21.5t-140.5 46-135.5 46-135.5 21.5q-43 0-99.5-13.5t-121.5-60.5z"/><glyph unicode="¤" horiz-adv-x="1210" d="M2 82l176 147q-20 35-29.5 80t-9.5 88q0 70 27 142.5t117 169.5l-123 147 137 113 119-146q72 41 133 60.5t127 19.5q133 0 225-80l180 146 90-111-178-149q39-84 39-172 0-70-27.5-142.5t-111.5-165.5l119-147-140-113-120 146q-129-82-256-82-63 0-117.5 19.5t-110.5 62.5l-180-146zm305 338q0-96 61.5-160.5t161.5-64.5q63 0 124 25.5t108 69.5 74.5 103.5 27.5 124.5q0 94-59.5 159.5t-159.5 65.5q-63 0-123.5-25.5t-108.5-69.5-77-102-29-126z"/><glyph unicode="¥" horiz-adv-x="1331" d="M180 354l35 168h320l6 25-33 84h-268l34 168h168l-215 553h265l215-613 462 613h261l-453-553h156l-35-168h-258l-62-76-8-33h303l-35-168h-303l-76-354h-235l76 354h-320z"/><glyph unicode="¦" horiz-adv-x="532" d="M-6-233l168 794h209l-168-794h-209zm215 1011l168 795h209l-168-795h-209z"/><glyph unicode="§" horiz-adv-x="888" d="M10-37l101 158q33-29 72.5-45.5t74.5-16.5q33 0 60.5 15.5t46 41 28.5 57.5 10 65q0 47-20.5 84.5t-51 71.5-67.5 68-67.5 70.5-51 80.5-20.5 100q0 43 15.5 88t41 87 60 77.5 75.5 60.5q-6 27-6 61 0 92 37 161t92.5 114 120 67.5 121.5 22.5q68 0 133.5-27.5t106.5-66.5l-103-158q-33 29-71.5 45.5t-73.5 16.5q-66 0-107-49.5t-41-120.5q0-74 44-127.5t96.5-104.5 96.5-110.5 44-141.5q0-45-15.5-90t-42-86-61.5-77-74-60q6-29 7-62 0-92-37-160.5t-92.5-113.5-121-67.5-120.5-22.5q-68 0-133.5 27.5t-106.5 66.5zm309 817q0-55 27-99t65-87 81-87 75-95q18 29 31.5 61.5t13.5 67.5q0 53-26.5 98t-65.5 87-81 86-74 95q-20-27-33-59.5t-13-67.5z"/><glyph unicode="¨" horiz-adv-x="450" d="M266 1247q0 27 12.5 51.5t33 44 47 31.5 53.5 12q41 0 68.5-31.5t27.5-72.5q0-27-13.5-50.5t-35-42-47-29.5-52.5-11q-41 0-67.5 28.5t-26.5 69.5zm279 0q0 27 12 51.5t32.5 44 47.5 31.5 53 12q41 0 68.5-31.5t27.5-72.5q0-27-13-50.5t-34.5-42-48-29.5-51.5-11q-41 0-67.5 28.5t-26.5 69.5z"/><glyph unicode="©" horiz-adv-x="1460" d="M131 621q0 143 64.5 274t172 229.5 245 156.5 282.5 58q113 0 206-39.5t159.5-108.5 103.5-162 37-200q0-147-65.5-278t-173-230.5-248-157-289.5-57.5q-109 0-200 40t-156.5 110-101.5 164.5-36 200.5zm127 12q0-88 27.5-164t78-132 122-88 157.5-32q123 0 236.5 47t199.5 129 137.5 190.5 51.5 231.5q0 86-28 162t-79 132-123.5 88-160.5 32q-121 0-233-47t-198-129-137-189.5-51-230.5zm152 18q0 78 25.5 154t77.5 136 132 97 189 37q68 0 131-15.5t98-41.5l-64-144q-25 18-83 34t-111 16q-59 0-101-22.5t-70-58.5-41-79-13-82q0-66 34.5-114t110.5-48q57 0 120.5 22.5t108.5 51.5l-6-145q-47-27-120.5-49.5t-151.5-22.5q-70 0-120 21.5t-83 59.5-48 88-15 105z"/><glyph unicode="ª" horiz-adv-x="745" d="M170 868q0 117 97.5 183.5t260.5 66.5h52l4 19q2 8 3 14t1 14q0 35-32 53.5t-77 18.5q-53 0-95-18.5t-83-42.5l-4 112q94 59 215 60 96 0 160.5-39t64.5-133q0-25-6-50l-78-370h-123l9 75h-9q-41-41-103-66.5t-122-25.5q-66 0-100.5 36t-34.5 93zm149 35q0-53 62-53 41 0 84 19.5t72 50.5l24 112h-22q-121 0-170.5-33t-49.5-96z"/><glyph unicode="«" horiz-adv-x="1081" d="M70 489l2 11 350 360h229l-372-362-3-11 220-362h-232zm397 0l2 11 350 360h230l-373-362-2-11 219-362h-231z"/><glyph unicode="¬" horiz-adv-x="1271" d="M135 561l35 168h983l-102-489h-191l68 321h-793z"/><glyph unicode="­" horiz-adv-x="956" d="M102 406l35 167h688l-34-167h-689z"/><glyph unicode="®" horiz-adv-x="1460" d="M131 621q0 143 64.5 274t172 229.5 245 156.5 282.5 58q113 0 206-39.5t159.5-108.5 103.5-162 37-200q0-147-65.5-278t-173-230.5-248-157-289.5-57.5q-109 0-200 40t-156.5 110-101.5 164.5-36 200.5zm127 12q0-88 27.5-164t78-132 122-88 157.5-32q123 0 236.5 47t199.5 129 137.5 190.5 51.5 231.5q0 86-28 162t-79 132-123.5 88-160.5 32q-121 0-233-47t-198-129-137-189.5-51-230.5zm219-221l144 671q16 2 40.5 3t50 2.5 47.5 1.5h34q70 0 115.5-12.5t73.5-35 39-53.5 11-67q0-76-43-137.5t-115-96.5l97-276h-146l-73 243h-86l-52-243h-137zm209 342h62q66 0 107.5 47t41.5 102q0 37-27.5 62.5t-99.5 25.5h-33z"/><glyph unicode="¯" horiz-adv-x="1705"/><glyph unicode="°" horiz-adv-x="755" d="M197 1024q0 63 23.5 121.5t68.5 103.5 108.5 72 141.5 27q121 0 177-62.5t56-155.5q0-59-21.5-115.5t-64.5-100.5-107.5-70.5-152.5-26.5q-61 0-105.5 16.5t-72 45-39.5 65.5-12 80zm147 33q0-47 25.5-81t83.5-34q43 0 74.5 15.5t52 39 29.5 54 9 61.5q0 41-24.5 73t-81.5 32q-43 0-74.5-14.5t-52-37-31-51-10.5-57.5z"/><glyph unicode="±" horiz-adv-x="946" d="M47 84l35 168h657l-34-168h-658zm109 498l34 168h238l39 182h188l-39-182h228l-35-168h-227l-45-207h-189l45 207h-237z"/><glyph unicode="²" horiz-adv-x="768" d="M127 612l27 127q66 59 145.5 111.5t149 103 116.5 102.5 47 113q0 23-14 46.5t-55 23.5q-53 0-120-36t-124-93l-8 131q80 59 151.5 90t143.5 31q88 0 134-45t46-115q0-61-32-116.5t-89-110.5-136-112.5-173-123.5h334l-27-127h-516z"/><glyph unicode="³" horiz-adv-x="694" d="M121 680l51 123q35-35 67.5-56.5t94.5-21.5q94 0 137 43t43 109q0 41-32.5 64.5t-119.5 23.5h-24l22 110h31q76 0 114 32t38 81q0 23-15.5 37t-56.5 14q-53 0-97-18.5t-75-40.5l2 120q53 29 98 45.5t103 16.5q90 0 138-42t48-108q0-68-37-110.5t-96-75.5q47-16 74.5-53t27.5-90q0-51-21.5-101.5t-63.5-90.5-106.5-64.5-150.5-24.5q-76 0-115.5 20.5t-78.5 57.5z"/><glyph unicode="´" horiz-adv-x="448" d="M250 1171l10 15 412 207q12 6 22 6 23 0 32-25.5t9-54.5-11-54.5-32-31.5l-413-141-15 6z"/><glyph unicode="µ" horiz-adv-x="1175" d="M-102-227q51 70 93 132t75.5 125.5 58.5 129 41 141.5l137 641h225l-131-612q-6-29-6-49 0-59 34-91t93-32q72 0 142.5 49t117.5 139l125 596h227l-198-942h-176l14 131h-8q-33-47-74-76.5t-86-47-91-25-89-7.5q-86 0-148 25l-8-16q-20-43-39.5-80t-40-73-44-74-52.5-81z"/><glyph unicode="¶" horiz-adv-x="1150" d="M141 842q0 123 44 219t124 162.5 189.5 102.5 238.5 36q78 0 187.5-3t208.5-7l-326-1528h-174l285 1341h-91l-284-1341h-185l146 684h-43q-80 0-139.5 26.5t-99.5 71.5-60.5 105.5-20.5 130.5z"/><glyph unicode="·" horiz-adv-x="540" d="M106 473q0 33 15.5 63.5t41 55 58.5 40 66 15.5q51 0 86-39t35-90q0-33-16.5-62.5t-43-53-59.5-37-64-13.5q-53 0-86 35t-33 86z"/><glyph unicode="¸" horiz-adv-x="413" d="M-84-395l78 98h14q23-10 56.5-17.5t68.5-7.5q41 0 73 15.5t32 58.5q0 29-22.5 40t-51.5 11q-25 0-52.5-4t-50.5-10l-26 53 137 158h111l-68-84q31 8 59 8 61 0 96.5-38t35.5-97q0-47-25-89t-67-75-96-52-116-19q-53 0-100 11t-86 27v13z"/><glyph unicode="¹" horiz-adv-x="509" d="M203 1206l329 156-159-750h-154l117 545-129-57z"/><glyph unicode="º" horiz-adv-x="802" d="M188 985q0 74 29 143.5t79 123 119.5 85 151.5 31.5q61 0 108.5-20.5t78-56.5 46-83 15.5-98q0-70-25.5-136.5t-74.5-119.5-120-86-161-33q-66 0-112 20.5t-75.5 55.5-44 80-14.5 94zm168 23q0-53 27-90t84-37q49 0 83 18.5t55.5 48 30.5 66.5 9 73q0 53-27.5 91.5t-87.5 38.5q-53 0-86.5-21.5t-53-52.5-27-67.5-7.5-67.5z"/><glyph unicode="»" horiz-adv-x="1081" d="M2 125l375 362 2 11-221 362h229l199-360-2-11-351-364h-231zm397 0l375 362 2 11-221 362h229l199-360-2-11-350-364h-232z"/><glyph unicode="¼" horiz-adv-x="1583" d="M51-49l1260 1464h184l-1259-1464h-185zm156 1255l330 156-160-750h-154l117 545-129-57zm635-1020l26 127 394 437h211l-93-437h70l-27-127h-69l-39-186h-139l38 186h-372zm174 127h225l68 316z"/><glyph unicode="½" horiz-adv-x="1593" d="M55-49l1260 1464h184l-1259-1464h-185zm152 1255l330 156-160-750h-154l117 545-129-57zm661-1206l27 127q66 59 145.5 111.5t149.5 102.5 117 102.5 47 113.5q0 23-14.5 46.5t-55.5 23.5q-53 0-119.5-36t-124.5-93l-8 131q80 59 151.5 90t143.5 31q88 0 134-45.5t46-114.5q0-61-31.5-116.5t-89-111-136.5-112.5-173-123h334l-27-127h-516z"/><glyph unicode="¾" horiz-adv-x="1583" d="M94-49l1260 1464h184l-1259-1464h-185zm4 729l52 123q35-35 67.5-56.5t93.5-21.5q94 0 137.5 43t43.5 109q0 41-33 64.5t-119 23.5h-25l23 110h31q76 0 113.5 32t37.5 81q0 23-15.5 37t-55.5 14q-53 0-97.5-18.5t-75.5-40.5l3 120q53 29 98 45.5t102 16.5q90 0 138.5-42t48.5-108q0-68-37-110.5t-97-75.5q47-16 75-53t28-90q0-51-21.5-101.5t-63.5-90.5-106.5-64.5-150.5-24.5q-76 0-116 20.5t-79 57.5zm746-494l26 127 394 437h211l-93-437h70l-27-127h-69l-39-186h-139l39 186h-373zm174 127h225l68 316z"/><glyph unicode="¿" horiz-adv-x="831" d="M-59-188q0 72 24.5 130t64.5 110 88 105.5 94 115 85 136 61 171.5h213q-20-100-59-178t-83-140.5-90-113-83-97.5-60.5-92-23.5-98q0-63 40-89t93-26q66 0 135.5 28.5t116.5 73.5l10-196q-66-43-158-75t-184-32q-131 0-207.5 75t-76.5 192zm419 997q0 33 17.5 62.5t44.5 53 59.5 37 65.5 13.5q51 0 83-36t32-85q0-33-15.5-62.5t-41-53-57.5-37-65-13.5q-53 0-88 36t-35 85z"/><glyph unicode="À" horiz-adv-x="1292" d="M-104 2l811 1352h202l291-1352h-256l-70 393h-509l-224-393h-245zm573 578h371l-88 497zm186 1030q0 18 7.5 40.5t19.5 42 27.5 32 31.5 12.5q8 0 19-6l325-207 2-15-45-73-16-6-354 141q-17 6-17 39z"/><glyph unicode="Á" horiz-adv-x="1292" d="M-106 0l811 1352h202l291-1352h-256l-70 393h-510l-223-393h-245zm573 578h371l-88 497zm158 933l8 15 414 207q12 6 20 6 23 0 33-25.5t10-54.5-11.5-54.5-31.5-31.5l-414-141-14 6z"/><glyph unicode="Â" horiz-adv-x="1292" d="M-106 0l811 1352h202l291-1352h-256l-70 393h-510l-223-393h-245zm573 578h371l-88 497zm156 929l10 15 268 202h17l182-202 2-15-45-59-15-6-176 84-209-84-14 6z"/><glyph unicode="Ã" horiz-adv-x="1292" d="M-106 0l811 1352h202l291-1352h-256l-70 393h-510l-223-393h-245zm573 578h371l-88 497zm76 933q18 37 39.5 71t49 59.5 63.5 41 87 15.5q59 0 127-14.5t123-14.5q37 0 79 11.5t89 41.5l14-47q-12-33-32.5-66.5t-48-60-63.5-44-81-17.5q-25 0-55.5 4t-66.5 10-72.5 10.5-71.5 4.5q-47 0-88-11.5t-76-40.5z"/><glyph unicode="Ä" horiz-adv-x="1292" d="M-106 0l811 1352h202l291-1352h-256l-70 393h-510l-223-393h-245zm573 578h371l-88 497zm154 1007q0 27 12 51.5t32.5 44 47 31.5 53.5 12q41 0 69.5-31.5t28.5-72.5q0-27-13-50.5t-34.5-42-48.5-29.5-53-11q-41 0-67.5 28.5t-26.5 69.5zm278 0q0 27 12.5 51.5t33 44 47 31.5 52.5 12q41 0 70-31.5t29-72.5q0-27-14.5-50.5t-36-42-48-29.5-51.5-11q-41 0-67.5 28.5t-26.5 69.5z"/><glyph unicode="Å" horiz-adv-x="1304" d="M-109 0l795 1300q-29 16-43 48t-14 67q0 39 18.5 77t51 66.5 76.5 46 93 17.5q78 0 120-46t42-108q0-53-32.5-97t-79.5-71l294-1300h-264l-65 414h-510l-228-414h-254zm586 598h371l-92 477zm275 834q0-29 17-50.5t46-21.5q35 0 62.5 29.5t27.5 64.5q0 29-15.5 47.5t-43.5 18.5q-41 0-67.5-26.5t-26.5-61.5z"/><glyph unicode="Æ" horiz-adv-x="1556" d="M-139 0l1007 1352h736l-43-209h-416l-68-322h277l-43-209h-279l-86-403h457l-45-209h-678l82 389h-363l-288-389h-250zm690 594h254l102 479z"/><glyph unicode="Ç" horiz-adv-x="1292" d="M111 508q0 166 57 320.5t166.5 272.5 266.5 189.5 355 71.5q111 0 216.5-23.5t177.5-64.5l-105-213q-55 45-141 72.5t-203 27.5q-147 0-249.5-53t-166-141-92-202-28.5-233q0-174 81.5-265t241.5-91q123 0 231.5 37t186.5 90l18-203q-86-47-199.5-82.5t-248.5-40.5l-47-61q16 4 32.5 6t28.5 2q59 0 94-38t35-97q0-47-24.5-89t-66.5-75-96-52-116-19q-53 0-100 11t-86 27v13l80 98h14q20-10 54-17.5t69-7.5q41 0 72.5 15.5t31.5 58.5q0 29-21.5 40t-51.5 11q-25 0-51.5-4t-49.5-10l-28 53 118 138q-119 10-205 56t-142 116.5-82.5 162-26.5 193.5z"/><glyph unicode="È" horiz-adv-x="1081" d="M61 0l287 1352h782l-43-205h-548l-70-328h412l-43-205h-412l-86-409h588l-43-205h-824zm521 1610q0 18 7 40.5t19.5 42 27.5 32 32 12.5q8 0 20-6l324-207 4-15-47-73-17-6-354 141q-16 6-16 39z"/><glyph unicode="É" horiz-adv-x="1081" d="M61 0l287 1352h782l-43-205h-548l-70-328h412l-43-205h-412l-86-409h588l-43-205h-824zm523 1509l8 15 414 207q12 6 20 6 23 0 33-25.5t10-54.5-11-54.5-32-31.5l-414-141-14 6z"/><glyph unicode="Ê" horiz-adv-x="1081" d="M61 0l287 1352h782l-43-205h-548l-70-328h412l-43-205h-412l-86-409h588l-43-205h-824zm506 1507l11 15 268 202h16l182-202 3-15-46-59-14-6-176 84-209-84-14 6z"/><glyph unicode="Ë" horiz-adv-x="1081" d="M61 0l287 1352h782l-43-205h-548l-70-328h412l-43-205h-412l-86-409h588l-43-205h-824zm488 1587q0 27 13 51.5t33.5 44 46.5 31.5 52 12q41 0 70-31.5t29-72.5q0-27-13.5-50.5t-35-42-48-29.5-51.5-11q-43 0-69.5 28.5t-26.5 69.5zm278 0q0 27 13.5 51.5t34 44 46 31.5 52.5 12q41 0 69.5-31.5t28.5-72.5q0-27-13.5-50.5t-35-42-48-29.5-50.5-11q-43 0-70 28.5t-27 69.5z"/><glyph unicode="Ì" horiz-adv-x="595" d="M61 0l287 1352h236l-287-1352h-236zm209 1610q0 18 7.5 40.5t19.5 42 27.5 32 31.5 12.5q8 0 21-6l323-207 5-15-48-73-16-6-354 141q-17 6-17 39z"/><glyph unicode="Í" horiz-adv-x="595" d="M61 0l287 1352h236l-287-1352h-236zm236 1509l8 15 414 207q12 6 20 6 23 0 33-25.5t10-54.5-11-54.5-32-31.5l-413-141-15 6z"/><glyph unicode="Î" horiz-adv-x="595" d="M61 0l287 1352h236l-287-1352h-236zm193 1507l10 15 268 202h17l182-202 2-15-45-59-14-6-176 84-209-84-15 6z"/><glyph unicode="Ï" horiz-adv-x="595" d="M61 0l287 1352h236l-287-1352h-236zm201 1585q0 27 12.5 51.5t33 44 47 31.5 53.5 12q41 0 69.5-31.5t28.5-72.5q0-27-13.5-50.5t-35-42-48-29.5-53.5-11q-41 0-67.5 28.5t-26.5 69.5zm279 0q0 27 12 51.5t32.5 44 47 31.5 53.5 12q41 0 69.5-31.5t28.5-72.5q0-27-13-50.5t-34.5-42-48-29.5-53.5-11q-41 0-67.5 28.5t-26.5 69.5z"/><glyph unicode="Ð" horiz-adv-x="1468" d="M57 637l33 151h152l118 564q29 2 86.5 4t121 3 122 2 90.5 1q197 0 318-41t188-113q59-63 86-165.5t27-213.5q0-203-59.5-360.5t-178.5-267-297-167-415-57.5q-86 0-184.5 6.5t-190.5 16.5l135 637h-152zm291-457q55-4 108.5-6t90.5-2q180 0 297 48t185.5 135 95 207 26.5 263q0 166-94 253t-322 87h-77q-48 0-101-2l-80-375h303l-32-151h-304z"/><glyph unicode="Ñ" horiz-adv-x="1478" d="M61 0l287 1352h289l383-994 211 994h235l-286-1352h-289l-383 991-211-991h-236zm529 1511q18 37 39.5 71t49.5 59.5 63.5 41 86.5 15.5q59 0 127-14.5t123-14.5q37 0 79 11.5t89 41.5l15-47q-12-33-33-66.5t-48.5-60-63.5-44-81-17.5q-25 0-55.5 4t-66 10-72.5 10.5-72 4.5q-47 0-88-11.5t-76-40.5z"/><glyph unicode="Ò" horiz-adv-x="1531" d="M109 510q0 168 59 321.5t168.5 271.5 262.5 188.5 339 70.5q135 0 234.5-43t166-118 99-174 32.5-212q0-154-57-303.5t-166.5-269-265.5-193.5-352-74q-135 0-233.5 42t-162 115-94 170-30.5 208zm245 4q0-152 83-245t249-93q135 0 237.5 57.5t170 148.5 101.5 204.5 34 228.5q0 76-20.5 139.5t-63.5 109.5-108.5 71.5-157.5 25.5q-141 0-240.5-58.5t-162-151.5-92.5-208.5-30-228.5zm348 1096q0 18 8.5 40.5t20.5 42 27.5 32 32.5 12.5q8 0 18-6l326-207 2-15-47-73-17-6-354 141q-17 6-17 39z"/><glyph unicode="Ó" horiz-adv-x="1531" d="M109 510q0 168 59 321.5t168.5 271.5 262.5 188.5 339 70.5q135 0 234.5-43t166-118 99-174 32.5-212q0-154-57-303.5t-166.5-269-265.5-193.5-352-74q-135 0-233.5 42t-162 115-94 170-30.5 208zm245 4q0-152 83-245t249-93q135 0 237.5 57.5t170 148.5 101.5 204.5 34 228.5q0 76-20.5 139.5t-63.5 109.5-108.5 71.5-157.5 25.5q-141 0-240.5-58.5t-162-151.5-92.5-208.5-30-228.5zm465 995l10 15 412 207q12 6 23 6 23 0 32-25.5t9-54.5-10.5-54.5-30.5-31.5l-414-141-16 6z"/><glyph unicode="Ô" horiz-adv-x="1531" d="M109 510q0 168 59 321.5t168.5 271.5 262.5 188.5 339 70.5q135 0 234.5-43t166-118 99-174 32.5-212q0-154-57-303.5t-166.5-269-265.5-193.5-352-74q-135 0-233.5 42t-162 115-94 170-30.5 208zm245 4q0-152 83-245t249-93q135 0 237.5 57.5t170 148.5 101.5 204.5 34 228.5q0 76-20.5 139.5t-63.5 109.5-108.5 71.5-157.5 25.5q-141 0-240.5-58.5t-162-151.5-92.5-208.5-30-228.5zm396 993l8 15 268 202h16l183-202 4-15-45-59-17-6-174 84-211-84-12 6z"/><glyph unicode="Õ" horiz-adv-x="1531" d="M109 510q0 168 59 321.5t168.5 271.5 262.5 188.5 339 70.5q135 0 234.5-43t166-118 99-174 32.5-212q0-154-57-303.5t-166.5-269-265.5-193.5-352-74q-135 0-233.5 42t-162 115-94 170-30.5 208zm245 4q0-152 83-245t249-93q135 0 237.5 57.5t170 148.5 101.5 204.5 34 228.5q0 76-20.5 139.5t-63.5 109.5-108.5 71.5-157.5 25.5q-141 0-240.5-58.5t-162-151.5-92.5-208.5-30-228.5zm297 997q20 37 41 71t48.5 59.5 64.5 41 88 15.5q59 0 126.5-14.5t123.5-14.5q37 0 78 11.5t88 41.5l14-47q-12-33-32.5-66.5t-48.5-60-62.5-44-79.5-17.5q-25 0-55.5 4t-66.5 10-73 10.5-71 4.5q-47 0-89.5-11.5t-76.5-40.5z"/><glyph unicode="Ö" horiz-adv-x="1531" d="M109 510q0 168 59 321.5t168.5 271.5 262.5 188.5 339 70.5q135 0 234.5-43t166-118 99-174 32.5-212q0-154-57-303.5t-166.5-269-265.5-193.5-352-74q-135 0-233.5 42t-162 115-94 170-30.5 208zm245 4q0-152 83-245t249-93q135 0 237.5 57.5t170 148.5 101.5 204.5 34 228.5q0 76-20.5 139.5t-63.5 109.5-108.5 71.5-157.5 25.5q-141 0-240.5-58.5t-162-151.5-92.5-208.5-30-228.5zm377 1071q0 27 12.5 51.5t33 44 46 31.5 51.5 12q41 0 70-31.5t29-72.5q0-27-13.5-50.5t-35-42-48-29.5-51.5-11q-41 0-67.5 28.5t-26.5 69.5zm279 0q0 27 12 51.5t32.5 44 46 31.5 52.5 12q41 0 69.5-31.5t28.5-72.5q0-27-13-50.5t-34.5-42-48.5-29.5-51-11q-41 0-67.5 28.5t-26.5 69.5z"/><glyph unicode="×" horiz-adv-x="929" d="M61 258l281 231-182 230 129 106 182-229 283 233 84-106-283-234 184-235-127-104-186 233-281-231z"/><glyph unicode="Ø" horiz-adv-x="1533" d="M-31 41l201 188q-31 61-45 132t-14 149q0 168 59 321.5t169 271.5 262.5 188.5 338.5 70.5q102 0 183-25.5t145-70.5l176 166 139-127-188-179q78-137 78-311 0-154-57.5-303.5t-167-269-265.5-193.5-352-74q-111 0-196 28t-148 79l-191-180zm385 473q0-29 2-53.5t9-46.5l731 690q-82 57-217 57-141 0-240.5-58.5t-162-151.5-92.5-208.5-30-228.5zm107-268q86-70 225-70 135 0 237.5 57.5t170 148.5 101.5 204.5 34 228.5q0 78-21 137z"/><glyph unicode="Ù" horiz-adv-x="1443" d="M133 346q0 66 14 129l187 877h235l-176-828q-8-33-11-62.5t-3-55.5q0-123 69.5-176.5t196.5-53.5q154 0 257.5 81t144.5 267l176 828h225l-186-877q-23-100-74-190t-135-159-200-109-263-40q-123 0-210 29t-142.5 78-80 116.5-24.5 145.5zm557 1264q0 18 8.5 40.5t20.5 42 27.5 32 31.5 12.5q8 0 19-6l325-207 2-15-45-73-18-6-352 141q-19 6-19 39z"/><glyph unicode="Ú" horiz-adv-x="1443" d="M133 346q0 66 14 129l187 877h235l-176-828q-8-33-11-62.5t-3-55.5q0-123 69.5-176.5t196.5-53.5q154 0 257.5 81t144.5 267l176 828h225l-186-877q-23-100-74-190t-135-159-200-109-263-40q-123 0-210 29t-142.5 78-80 116.5-24.5 145.5zm594 1163l10 15 412 207q12 6 22 6 23 0 32-25.5t9-54.5-10-54.5-31-31.5l-413-141-15 6z"/><glyph unicode="Û" horiz-adv-x="1443" d="M133 346q0 66 14 129l187 877h235l-176-828q-8-33-11-62.5t-3-55.5q0-123 69.5-176.5t196.5-53.5q154 0 257.5 81t144.5 267l176 828h225l-186-877q-23-100-74-190t-135-159-200-109-263-40q-123 0-210 29t-142.5 78-80 116.5-24.5 145.5zm543 1161l8 15 270 202h17l180-202 4-15-45-59-16-6-174 84-211-84-13 6z"/><glyph unicode="Ü" horiz-adv-x="1443" d="M133 346q0 66 14 129l187 877h235l-176-828q-8-33-11-62.5t-3-55.5q0-123 69.5-176.5t196.5-53.5q154 0 257.5 81t144.5 267l176 828h225l-186-877q-23-100-74-190t-135-159-200-109-263-40q-123 0-210 29t-142.5 78-80 116.5-24.5 145.5zm576 1239q0 27 12 51.5t32.5 44 47 31.5 53.5 12q41 0 68.5-31.5t27.5-72.5q0-27-13-50.5t-34.5-42-48.5-29.5-51-11q-41 0-67.5 28.5t-26.5 69.5zm278 0q0 27 12.5 51.5t33 44 47 31.5 53.5 12q41 0 68.5-31.5t27.5-72.5q0-27-13.5-50.5t-35-42-48-29.5-51.5-11q-41 0-67.5 28.5t-26.5 69.5z"/><glyph unicode="Ý" horiz-adv-x="1150" d="M137 1352h264l215-613 463 613h260l-651-797-117-555h-235l115 547zm490 157l10 15 412 207q12 6 22 6 23 0 33-25.5t10-54.5-11-54.5-32-31.5l-414-141-14 6z"/><glyph unicode="Þ" horiz-adv-x="1091" d="M61 0l287 1352h236l-47-226h90q201 0 316.5-89t115.5-259q0-98-37-189t-108.5-162-178-113-248.5-42h-68q-34 0-65 2l-57-274h-236zm336 471q29-2 61-2h66q141 0 211 83t70 214q0 72-41 118t-146 46h-63q-31 0-61-2z"/><glyph unicode="ß" horiz-adv-x="1132" d="M23 0l210 995q25 115 71 209t111.5 162 149.5 104.5 187 36.5q68 0 119-19.5t86.5-51 54-74.5 18.5-90q0-55-22.5-103.5t-57.5-90.5-73.5-81-73.5-74.5-57.5-70.5-22.5-70 22.5-63.5 56.5-57 73.5-58.5 73.5-66.5 56.5-85 22.5-111.5q0-106-43-181t-106.5-123-134-69.5-126.5-21.5q-74 0-130 27.5t-89 62.5l105 215q23-59 63.5-98t102.5-39q51 0 95 50t44 144q0 55-21.5 95t-53.5 72-69.5 58.5-69.5 56-53.5 66.5-21.5 88q0 88 45 151.5t100.5 119 100.5 110 45 121.5q0 41-24.5 68.5t-77.5 27.5q-66 0-110-28.5t-74.5-76.5-51-110.5-35.5-130.5l-211-995h-204z"/><glyph unicode="à" d="M57 367q0 111 37 219t106.5 194 171 139.5 230.5 53.5q98 0 177-33t114-92h8l43 94h176l-200-942h-181l11 129h-9q-72-63-153.5-108.5t-192.5-45.5q-80 0-143.5 30t-106.5 82-65.5 124-22.5 156zm226 22q0-47 10-91t31.5-78 55.5-54.5 81-20.5q33 0 71.5 9.5t78.5 26 77 40 66 53.5l84 394q-47 76-104.5 103.5t-117.5 27.5q-80 0-141-36t-104-94.5-65.5-131-22.5-148.5zm202 879q0 18 8.5 40.5t20.5 42 27.5 32 31.5 12.5q8 0 19-6l326-207 2-15-46-73-18-7-352 142q-19 6-19 39z"/><glyph unicode="á" d="M57 367q0 111 37 219t106.5 194 171 139.5 230.5 53.5q98 0 177-33t114-92h8l43 94h176l-200-942h-181l11 129h-9q-72-63-153.5-108.5t-192.5-45.5q-80 0-143.5 30t-106.5 82-65.5 124-22.5 156zm226 22q0-47 10-91t31.5-78 55.5-54.5 81-20.5q33 0 71.5 9.5t78.5 26 77 40 66 53.5l84 394q-47 76-104.5 103.5t-117.5 27.5q-80 0-141-36t-104-94.5-65.5-131-22.5-148.5zm331 780l11 15 411 207q12 6 23 6 23 0 33-25.5t10-54.5-11.5-54.5-31.5-31.5l-414-141-14 6z"/><glyph unicode="â" d="M57 367q0 111 37 219t106.5 194 171 139.5 230.5 53.5q98 0 177-33t114-92h8l43 94h176l-200-942h-181l11 129h-9q-72-63-153.5-108.5t-192.5-45.5q-80 0-143.5 30t-106.5 82-65.5 124-22.5 156zm226 22q0-47 10-91t31.5-78 55.5-54.5 81-20.5q33 0 71.5 9.5t78.5 26 77 40 66 53.5l84 394q-47 76-104.5 103.5t-117.5 27.5q-80 0-141-36t-104-94.5-65.5-131-22.5-148.5zm221 772l8 15 268 202h17l182-202 4-15-47-59-14-6-174 84-211-84-15 6z"/><glyph unicode="ã" d="M57 367q0 111 37 219t106.5 194 171 139.5 230.5 53.5q98 0 177-33t114-92h8l43 94h176l-200-942h-181l11 129h-9q-72-63-153.5-108.5t-192.5-45.5q-80 0-143.5 30t-106.5 82-65.5 124-22.5 156zm226 22q0-47 10-91t31.5-78 55.5-54.5 81-20.5q33 0 71.5 9.5t78.5 26 77 40 66 53.5l84 394q-47 76-104.5 103.5t-117.5 27.5q-80 0-141-36t-104-94.5-65.5-131-22.5-148.5zm161 795q18 37 40 70.5t49.5 59 63.5 41 87 15.5q59 0 127-14.5t123-14.5q37 0 79 11.5t89 42.5l14-47q-12-33-32.5-67t-48-60.5-63.5-44-81-17.5q-25 0-55.5 4t-66.5 10.5-73 10.5-71 4q-47 0-88-11.5t-76-39.5z"/><glyph unicode="ä" d="M57 367q0 111 37 219t106.5 194 171 139.5 230.5 53.5q98 0 177-33t114-92h8l43 94h176l-200-942h-181l11 129h-9q-72-63-153.5-108.5t-192.5-45.5q-80 0-143.5 30t-106.5 82-65.5 124-22.5 156zm226 22q0-47 10-91t31.5-78 55.5-54.5 81-20.5q33 0 71.5 9.5t78.5 26 77 40 66 53.5l84 394q-47 76-104.5 103.5t-117.5 27.5q-80 0-141-36t-104-94.5-65.5-131-22.5-148.5zm239 846q0 27 12.5 51.5t33 44 47 31.5 53.5 12q41 0 68.5-31.5t27.5-72.5q0-27-13.5-50.5t-35-42-48-29.5-51.5-11q-41 0-67.5 28.5t-26.5 69.5zm279 0q0 27 12 51.5t32.5 44 47.5 31.5 53 12q41 0 68.5-31.5t27.5-72.5q0-27-13-50.5t-34.5-42-48-29.5-51.5-11q-41 0-67.5 28.5t-26.5 69.5z"/><glyph unicode="å" d="M57 367q0 111 37 219t106.5 194 171 139.5 230.5 53.5q98 0 177-33t114-92h8l43 94h176l-200-942h-181l11 129h-9q-72-63-153.5-108.5t-192.5-45.5q-80 0-143.5 30t-106.5 82-65.5 124-22.5 156zm226 22q0-47 10-91t31.5-78 55.5-54.5 81-20.5q33 0 71.5 9.5t78.5 26 77 40 66 53.5l84 394q-47 76-104.5 103.5t-117.5 27.5q-80 0-141-36t-104-94.5-65.5-131-22.5-148.5zm315 834q0 37 17.5 71.5t47 62 71.5 45 91 17.5q78 0 118-45t40-102q0-35-16.5-69t-46-61.5-71.5-44-93-16.5q-84 0-121 44.5t-37 97.5zm119 14q0-25 15.5-45.5t43.5-20.5q35 0 60.5 29t25.5 60q0 27-14 48t-43 21q-39 0-63.5-30.5t-24.5-61.5z"/><glyph unicode="æ" horiz-adv-x="1642" d="M-2 190q0 90 30.5 156t81 112 115 75.5 131 45 129 21.5 111.5 6h86l4 19q6 27 6 51 0 115-168 115-90 0-161.5-18.5t-143.5-49.5l-6 170q162 80 362 80 45 0 92.5-6t90.5-21.5 77.5-41 57.5-64.5q76 61 170 97t205 36q154 0 233.5-71t79.5-200q0-39-8-77.5t-20.5-72.5-28-60.5-29.5-40.5h-596q-6-35-6-68 0-98 52-163.5t169-65.5q76 0 166 28.5t162 71.5v-168q-31-16-75-35.5t-96-36-110.5-28-120.5-11.5q-127 0-209.5 48.5t-123.5 128.5q-109-98-231-137.5t-245-39.5q-119 0-176 61.5t-57 153.5zm248 54q0-41 27.5-63.5t76.5-22.5q29 0 64 7t69.5 22.5 68.5 37 60 49.5l39 191h-14q-68 0-136.5-7t-126-29.5-93-66.5-35.5-118zm704 366h344q43 0 49 2 4 10 8.5 22.5t4.5 41.5q0 59-38 90t-93 31q-92 0-162-52.5t-113-134.5z"/><glyph unicode="ç" horiz-adv-x="1001" d="M57 369q0 111 37 219t113 193 190.5 138.5 268.5 53.5q98 0 187-22.5t138-59.5l-88-182q-39 35-116.5 61.5t-153.5 26.5q-90 0-152.5-37t-101.5-94.5-56.5-127-17.5-132.5q0-104 49-176t156-72q74 0 163 29.5t156 82.5v-192q-59-35-152-64.5t-196-36.5l-49-61q16 4 32.5 6t29.5 2q59 0 94-38t35-97q0-47-25-89t-65.5-75-96-52-117.5-19q-53 0-100 11t-86 27l2 13 78 98h14q20-10 54-17.5t69-7.5q41 0 73 15.5t32 58.5q0 29-21.5 40t-52.5 11q-25 0-51.5-4t-48.5-10l-29 53 121 138q-82 10-141.5 43.5t-98.5 86-57.5 119-18.5 140.5z"/><glyph unicode="è" horiz-adv-x="1034" d="M53 369q0 115 43 223t123 193 191.5 136.5 248.5 51.5q154 0 234-71t80-200q0-39-8.5-77.5t-21.5-72.5-28.5-60.5-27.5-40.5h-600q-2-12-2-25v-25q0-51 13-96t40-78.5 69-53 99-19.5q76 0 166 28.5t162 71.5v-168q-31-16-75-35.5t-96.5-36-110.5-28-120-11.5q-96 0-166.5 32t-118 85-71 125-23.5 152zm281 241h399q4 10 9.5 22.5t5.5 43.5q0 59-39 90t-95 31q-96 0-167.5-53.5t-112.5-133.5zm86 658q0 18 7 40.5t19.5 42 29 32 32.5 12.5q6 0 18-6l324-207 4-15-47-73-16-7-355 142q-16 6-16 39z"/><glyph unicode="é" horiz-adv-x="1034" d="M53 369q0 115 43 223t123 193 191.5 136.5 248.5 51.5q154 0 234-71t80-200q0-39-8.5-77.5t-21.5-72.5-28.5-60.5-27.5-40.5h-600q-2-12-2-25v-25q0-51 13-96t40-78.5 69-53 99-19.5q76 0 166 28.5t162 71.5v-168q-31-16-75-35.5t-96.5-36-110.5-28-120-11.5q-96 0-166.5 32t-118 85-71 125-23.5 152zm281 241h399q4 10 9.5 22.5t5.5 43.5q0 59-39 90t-95 31q-96 0-167.5-53.5t-112.5-133.5zm176 559l10 15 412 207q12 6 22 6 23 0 33-25.5t10-54.5-11-54.5-32-31.5l-413-141-15 6z"/><glyph unicode="ê" horiz-adv-x="1034" d="M53 369q0 115 43 223t123 193 191.5 136.5 248.5 51.5q154 0 234-71t80-200q0-39-8.5-77.5t-21.5-72.5-28.5-60.5-27.5-40.5h-600q-2-12-2-25v-25q0-51 13-96t40-78.5 69-53 99-19.5q76 0 166 28.5t162 71.5v-168q-31-16-75-35.5t-96.5-36-110.5-28-120-11.5q-96 0-166.5 32t-118 85-71 125-23.5 152zm281 241h399q4 10 9.5 22.5t5.5 43.5q0 59-39 90t-95 31q-96 0-167.5-53.5t-112.5-133.5zm98 551l10 15 269 202h16l182-202 2-15-45-59-16-6-174 84-211-84-12 6z"/><glyph unicode="ë" horiz-adv-x="1034" d="M53 369q0 115 43 223t123 193 191.5 136.5 248.5 51.5q154 0 234-71t80-200q0-39-8.5-77.5t-21.5-72.5-28.5-60.5-27.5-40.5h-600q-2-12-2-25v-25q0-51 13-96t40-78.5 69-53 99-19.5q76 0 166 28.5t162 71.5v-168q-31-16-75-35.5t-96.5-36-110.5-28-120-11.5q-96 0-166.5 32t-118 85-71 125-23.5 152zm281 241h399q4 10 9.5 22.5t5.5 43.5q0 59-39 90t-95 31q-96 0-167.5-53.5t-112.5-133.5zm96 625q0 27 12.5 51.5t33 44 46 31.5 51.5 12q41 0 70-31.5t29-72.5q0-27-13.5-50.5t-35-42-48-29.5-51.5-11q-41 0-67.5 28.5t-26.5 69.5zm279 0q0 27 12 51.5t32.5 44 46 31.5 52.5 12q41 0 69.5-31.5t28.5-72.5q0-27-13-50.5t-34.5-42-48.5-29.5-51-11q-41 0-67.5 28.5t-26.5 69.5z"/><glyph unicode="ì" horiz-adv-x="505" d="M20 0l201 942h225l-200-942h-226zm80 1268q0 18 8.5 40.5t20.5 42 27.5 32 31.5 12.5q8 0 19-6l325-207 3-15-46-73-18-7-352 142q-19 6-19 39z"/><glyph unicode="í" horiz-adv-x="505" d="M20 0l201 942h225l-200-942h-226zm156 1169l10 15 412 207q12 6 23 6 23 0 33-25.5t10-54.5-11.5-54.5-31.5-31.5l-414-141-14 6z"/><glyph unicode="î" horiz-adv-x="505" d="M20 0l201 942h225l-200-942h-226zm115 1161l8 15 269 202h16l182-202 4-15-47-59-14-6-176 84-209-84-14 6z"/><glyph unicode="ï" horiz-adv-x="505" d="M20 0l201 942h225l-200-942h-226zm117 1235q0 27 12.5 51.5t33 44 47 31.5 53.5 12q41 0 68.5-31.5t27.5-72.5q0-27-13.5-50.5t-35-42-48-29.5-51.5-11q-41 0-67.5 28.5t-26.5 69.5zm279 0q0 27 12 51.5t32.5 44 47.5 31.5 53 12q41 0 68.5-31.5t27.5-72.5q0-27-13-50.5t-34.5-42-48-29.5-51.5-11q-41 0-67.5 28.5t-26.5 69.5z"/><glyph unicode="ð" horiz-adv-x="1171" d="M55 365q0 117 41 226t115 194 179.5 136.5 234.5 51.5q104 0 166.5-36t85.5-97l6 2q0 10 1 18t1 19q0 66-15.5 140.5t-44.5 149.5l-252-59-14 133 211 51q-39 72-87 129.5t-101 92.5h301q57-68 104-166l268 67 15-139-236-57q27-86 41.5-183.5t14.5-201.5q0-84-10.5-180.5t-38-191.5-73.5-184.5-118-157-172-107.5-234-40q-106 0-181 33t-121 87.5-66.5 124-20.5 145.5zm244 20q0-47 10-91t31.5-77 56.5-52.5 82-19.5q76 0 134.5 37t97.5 95.5 59.5 131 20.5 146.5q0 49-10.5 93t-33 77-56.5 52.5-83 19.5q-76 0-134-37t-97-95.5-58.5-132-19.5-147.5z"/><glyph unicode="ñ" horiz-adv-x="1126" d="M20 0l201 942h176l-20-139h8q61 86 161.5 128t205.5 42q57 0 107-12.5t87-40 58.5-71.5 21.5-108q0-45-12-100l-137-641h-226l133 623q6 31 7 55 0 113-115 113-35 0-77-12.5t-84-36-80-58.5-60-80l-129-604h-226zm345 1184q18 37 39.5 70.5t49 59 63.5 41 87 15.5q59 0 127-14.5t123-14.5q37 0 78 11.5t90 42.5l14-47q-12-33-32.5-67t-48-60.5-63.5-44-81-17.5q-25 0-55.5 4t-66.5 10.5-72.5 10.5-71.5 4q-47 0-88-11.5t-76-39.5z"/><glyph unicode="ò" horiz-adv-x="1130" d="M55 365q0 113 39 222t114 195 186.5 138.5 256.5 52.5q102 0 175-32t120-86 68.5-125 21.5-150q0-115-37.5-223.5t-111.5-193.5-184.5-136.5-258.5-51.5q-102 0-175.5 31t-121 84-70 124-22.5 151zm246 20q0-47 10.5-91t32-77 55-52.5 80.5-19.5q76 0 134.5 37t97.5 95.5 59.5 131 20.5 146.5q0 49-10.5 93t-33 77-56.5 52.5-83 19.5q-76 0-133-37t-96-95.5-58.5-132-19.5-147.5zm117 883q0 18 8 40.5t20.5 42 27.5 32 32 12.5q8 0 18-6l326-207 2-15-47-73-17-7-354 142q-16 6-16 39z"/><glyph unicode="ó" horiz-adv-x="1130" d="M55 365q0 113 39 222t114 195 186.5 138.5 256.5 52.5q102 0 175-32t120-86 68.5-125 21.5-150q0-115-37.5-223.5t-111.5-193.5-184.5-136.5-258.5-51.5q-102 0-175.5 31t-121 84-70 124-22.5 151zm246 20q0-47 10.5-91t32-77 55-52.5 80.5-19.5q76 0 134.5 37t97.5 95.5 59.5 131 20.5 146.5q0 49-10.5 93t-33 77-56.5 52.5-83 19.5q-76 0-133-37t-96-95.5-58.5-132-19.5-147.5zm223 784l11 15 411 207q12 6 23 6 23 0 33-25.5t10-54.5-11.5-54.5-31.5-31.5l-414-141-14 6z"/><glyph unicode="ô" horiz-adv-x="1130" d="M55 365q0 113 39 222t114 195 186.5 138.5 256.5 52.5q102 0 175-32t120-86 68.5-125 21.5-150q0-115-37.5-223.5t-111.5-193.5-184.5-136.5-258.5-51.5q-102 0-175.5 31t-121 84-70 124-22.5 151zm246 20q0-47 10.5-91t32-77 55-52.5 80.5-19.5q76 0 134.5 37t97.5 95.5 59.5 131 20.5 146.5q0 49-10.5 93t-33 77-56.5 52.5-83 19.5q-76 0-133-37t-96-95.5-58.5-132-19.5-147.5zm168 776l10 15 269 202h16l182-202 2-15-45-59-14-6-176 84-209-84-15 6z"/><glyph unicode="õ" horiz-adv-x="1130" d="M55 365q0 113 39 222t114 195 186.5 138.5 256.5 52.5q102 0 175-32t120-86 68.5-125 21.5-150q0-115-37.5-223.5t-111.5-193.5-184.5-136.5-258.5-51.5q-102 0-175.5 31t-121 84-70 124-22.5 151zm246 20q0-47 10.5-91t32-77 55-52.5 80.5-19.5q76 0 134.5 37t97.5 95.5 59.5 131 20.5 146.5q0 49-10.5 93t-33 77-56.5 52.5-83 19.5q-76 0-133-37t-96-95.5-58.5-132-19.5-147.5zm57 799q18 37 40 70.5t49.5 59 63.5 41 87 15.5q59 0 127-14.5t123-14.5q37 0 78 11.5t90 42.5l14-47q-12-33-32.5-67t-48-60.5-63.5-44-81-17.5q-25 0-55.5 4t-66.5 10.5-73 10.5-71 4q-47 0-88-11.5t-76-39.5z"/><glyph unicode="ö" horiz-adv-x="1130" d="M55 365q0 113 39 222t114 195 186.5 138.5 256.5 52.5q102 0 175-32t120-86 68.5-125 21.5-150q0-115-37.5-223.5t-111.5-193.5-184.5-136.5-258.5-51.5q-102 0-175.5 31t-121 84-70 124-22.5 151zm246 20q0-47 10.5-91t32-77 55-52.5 80.5-19.5q76 0 134.5 37t97.5 95.5 59.5 131 20.5 146.5q0 49-10.5 93t-33 77-56.5 52.5-83 19.5q-76 0-133-37t-96-95.5-58.5-132-19.5-147.5zm154 850q0 27 12 51.5t32.5 44 47 31.5 53.5 12q41 0 68.5-31.5t27.5-72.5q0-27-13-50.5t-34.5-42-48.5-29.5-51-11q-41 0-67.5 28.5t-26.5 69.5zm278 0q0 27 12.5 51.5t33 44 47 31.5 53.5 12q41 0 68.5-31.5t27.5-72.5q0-27-13.5-50.5t-35-42-48-29.5-51.5-11q-41 0-67.5 28.5t-26.5 69.5z"/><glyph unicode="÷" horiz-adv-x="1042" d="M66 406l34 167h848l-35-167h-847zm237-300q0 33 15.5 64t41 55.5 57.5 40 66 15.5q51 0 86-39t35-90q0-33-17.5-63t-44-53.5-59-36.5-63.5-13q-53 0-85 34.5t-32 85.5zm152 713q0 33 15 63.5t41 55.5 57.5 40 66.5 15q51 0 86-39t35-90q0-33-16.5-62.5t-43-53-59.5-37-66-13.5q-53 0-84.5 35t-31.5 86z"/><glyph unicode="ø" horiz-adv-x="1130" d="M-45 25l145 133q-45 90-45 207 0 113 39 222t114 195 186.5 138.5 256.5 52.5q82 0 144.5-21.5t107.5-56.5l135 123 103-90-152-140q25-47 36-99t11-109q0-115-37.5-223.5t-111.5-193.5-184.5-136.5-256.5-51.5q-84 0-147 20.5t-111 55.5l-141-129zm346 329q0-14 4-28l440 405q-23 29-56.5 47.5t-80.5 18.5q-76 0-133-37t-96-95.5-58.5-132-19.5-147.5v-31zm43-139q23-33 56.5-51.5t80.5-18.5q76 0 134.5 37t97.5 95.5 59.5 131 20.5 146.5q0 33-7 68z"/><glyph unicode="ù" horiz-adv-x="1099" d="M63 197q0 45 13 104l137 641h225l-131-612q-4-10-4-22v-21q0-53 29.5-91t95.5-38q72 0 141.5 48t116.5 138l127 598h227l-200-942h-176l16 131h-8q-33-47-74-76.5t-86-47-92-25-90-7.5q-57 0-105.5 11.5t-84.5 37-56.5 69-20.5 104.5zm338 1071q0 18 7.5 40.5t19.5 42 27.5 32 31.5 12.5q8 0 21-6l323-207 5-15-48-73-16-7-354 142q-17 6-17 39z"/><glyph unicode="ú" horiz-adv-x="1099" d="M63 197q0 45 13 104l137 641h225l-131-612q-4-10-4-22v-21q0-53 29.5-91t95.5-38q72 0 141.5 48t116.5 138l127 598h227l-200-942h-176l16 131h-8q-33-47-74-76.5t-86-47-92-25-90-7.5q-57 0-105.5 11.5t-84.5 37-56.5 69-20.5 104.5zm392 972l8 15 414 207q12 6 20 6 23 0 33-25.5t10-54.5-11-54.5-32-31.5l-414-141-14 6z"/><glyph unicode="û" horiz-adv-x="1099" d="M63 199q0 43 13 102l137 641h225l-131-612q-4-10-4-22v-21q0-53 29.5-91t95.5-38q72 0 141.5 48t116.5 138l127 598h227l-200-942h-176l16 131h-8q-33-47-74-76.5t-86-47-92-25-90-7.5q-57 0-105.5 11.5t-84.5 38-56.5 70-20.5 104.5zm361 962l8 15 270 202h17l180-202 4-15-45-59-16-6-174 84-211-84-13 6z"/><glyph unicode="ü" horiz-adv-x="1099" d="M63 199q0 43 13 102l137 641h225l-131-612q-6-29-6-51 0-59 34-90t93-31q72 0 141.5 48t116.5 138l127 598h227l-200-942h-176l16 131h-8q-33-47-74-76.5t-86-47-92-25-90-7.5q-57 0-105.5 11.5t-84.5 38-56.5 70-20.5 104.5zm359 1036q0 27 12 51.5t32.5 44 47.5 31.5 53 12q41 0 70-31.5t29-72.5q0-27-14.5-50.5t-36-42-48-29.5-51.5-11q-41 0-67.5 28.5t-26.5 69.5zm278 0q0 27 12.5 51.5t33 44 47 31.5 53.5 12q41 0 69.5-31.5t28.5-72.5q0-27-13-50.5t-35-42-48.5-29.5-52.5-11q-41 0-68 28.5t-27 69.5z"/><glyph unicode="ý" horiz-adv-x="1060" d="M-172-342q6-2 13-4t34-2q39 0 80 8t84 33q84 47 155.5 131t149.5 207l-276 911h235l186-670 404 670h219l-592-950q-43-72-112.5-161t-154.5-168-183.5-133-198.5-54q-16 0-24.5 1t-18.5 5v176zm686 1511l8 15 414 207q12 6 20 6 23 0 33-25.5t10-54.5-11-54.5-32-31.5l-413-141-15 6z"/><glyph unicode="þ" d="M-92-532l436 2048h217l-145-682h8q31 29 71 54t84 43.5 89 30 84 11.5q88 0 151.5-31t104.5-82 59-120.5 18-145.5q0-117-35.5-227.5t-104-197.5-171-140.5-237.5-53.5q-92 0-166 27t-109 86l-131-620h-223zm393 800q47-76 106.5-95t112.5-19q84 0 146.5 33.5t104.5 90 63.5 129 21.5 148.5q0 47-9 92t-30.5 79-55.5 54.5-83 20.5q-31 0-69-9.5t-77.5-26.5-77.5-42-67-55z"/><glyph unicode="ÿ" horiz-adv-x="1060" d="M-172-342q6-2 13-4t34-2q39 0 80 8t84 33q84 47 155.5 131t149.5 207l-276 911h235l186-670 404 670h219l-592-950q-43-72-112.5-161t-154.5-168-183.5-133-198.5-54q-16 0-24.5 1t-18.5 5v176zm567 1577q0 27 12.5 51.5t33 44 47 31.5 53.5 12q41 0 69.5-31.5t28.5-72.5q0-27-14.5-50.5t-36-42-48-29.5-51.5-11q-41 0-67.5 28.5t-26.5 69.5zm279 0q0 27 12 51.5t32.5 44 47.5 31.5 53 12q41 0 70-31.5t29-72.5q0-27-14.5-50.5t-36-42-48-29.5-51.5-11q-41 0-67.5 28.5t-26.5 69.5z"/><glyph unicode="Œ" horiz-adv-x="1736" d="M109 510q0 168 59 321.5t168.5 271.5 262.5 188.5 339 70.5q39 0 75-3t70-7h703l-45-205h-508l-70-328h371l-43-205h-371l-86-409h549l-45-205h-709q-92-25-200-25-135 0-233.5 42t-162 115-94 170-30.5 208zm253 18q0-174 79-265t233-91q66 0 121 18l202 957q-47 18-108 18-147 0-247.5-56t-163-147.5-89.5-205-27-228.5z"/><glyph unicode="œ" horiz-adv-x="1728" d="M55 365q0 113 39 222t114 195 186.5 138.5 256.5 52.5q119 0 199-43t113-137q160 180 391 180 154 0 233.5-71t79.5-200q0-39-8-77.5t-20.5-72.5-28-60.5-29.5-40.5h-596q-6-35-6-68 0-98 52-163.5t169-65.5q76 0 166 28.5t162 71.5v-168q-31-16-75-35.5t-96-36-110.5-28-120.5-11.5q-109 0-186.5 41t-112.5 131q-72-94-169-133t-214-39q-102 0-175.5 31t-121 84-70 124-22.5 151zm246 20q0-47 10.5-91t32-77 55-52.5 80.5-19.5q76 0 134.5 37t97.5 95.5 59.5 131 20.5 146.5q0 49-10.5 93t-33 77-56.5 52.5-83 19.5q-76 0-133-37t-96-95.5-58.5-132-19.5-147.5zm735 225h344q43 0 50 2 4 10 8 22.5t4 41.5q0 59-38 90t-93 31q-92 0-162-52.5t-113-134.5z"/><glyph unicode="Ÿ" horiz-adv-x="1150" d="M137 1352h264l215-613 463 613h260l-651-797-117-555h-235l115 547zm404 233q0 27 12 51.5t32.5 44 47 31.5 53.5 12q41 0 68.5-31.5t27.5-72.5q0-27-13-50.5t-34.5-42-48.5-29.5-51-11q-41 0-67.5 28.5t-26.5 69.5zm278 0q0 27 12.5 51.5t33 44 47 31.5 53.5 12q41 0 68.5-31.5t27.5-72.5q0-27-13.5-50.5t-35-42-48-29.5-51.5-11q-41 0-67.5 28.5t-26.5 69.5z"/><glyph unicode="ˆ" horiz-adv-x="479" d="M248 1161l8 15 270 202h17l180-202 4-15-45-59-16-6-174 84-211-84-13 6z"/><glyph unicode="˜" horiz-adv-x="636" d="M248 1163q18 37 39.5 71t49.5 59.5 64.5 41 85.5 15.5q59 0 127-14.5t123-14.5q37 0 79 11t89 42l15-47q-12-33-33-66.5t-48.5-60-63.5-44-81-17.5q-25 0-56.5 4t-66 10-71.5 10-72 4q-47 0-88-11t-76-40z"/><glyph horiz-adv-x="868"/><glyph horiz-adv-x="1738"/><glyph horiz-adv-x="868"/><glyph horiz-adv-x="1738"/><glyph horiz-adv-x="579"/><glyph horiz-adv-x="434"/><glyph horiz-adv-x="288"/><glyph horiz-adv-x="288"/><glyph horiz-adv-x="217"/><glyph horiz-adv-x="346"/><glyph horiz-adv-x="96"/><glyph unicode="‐" horiz-adv-x="960" d="M102 406l35 167h692l-34-167h-693z"/><glyph unicode="‑" horiz-adv-x="960" d="M102 406l35 167h692l-34-167h-693z"/><glyph unicode="‒" horiz-adv-x="960" d="M102 406l35 167h692l-34-167h-693z"/><glyph unicode="–" horiz-adv-x="1116" d="M102 406l35 167h848l-35-167h-848z"/><glyph unicode="—" horiz-adv-x="1583" d="M102 406l35 167h1315l-35-167h-1315z"/><glyph unicode="‘" horiz-adv-x="514" d="M213 942l66 311 264 252 63-51-141-231h51l-59-281h-244z"/><glyph unicode="’" horiz-adv-x="479" d="M195 993l141 232h-51l59 280h244l-66-311-264-252z"/><glyph unicode="‚" horiz-adv-x="532" d="M-63-242l141 232h-51l59 280h244l-66-311-264-252z"/><glyph unicode="“" horiz-adv-x="839" d="M213 942l66 311 264 252 63-51-141-231h51l-59-281h-244zm326 0l65 311 264 252 64-51-141-231h51l-60-281h-243z"/><glyph unicode="”" horiz-adv-x="804" d="M195 993l141 232h-51l59 280h244l-66-311-264-252zm325 0l142 232h-52l60 280h243l-65-311-264-252z"/><glyph unicode="„" horiz-adv-x="858" d="M-63-242l141 232h-51l59 280h244l-66-311-264-252zm325 0l141 232h-51l60 280h243l-65-311-264-252z"/><glyph unicode="•" horiz-adv-x="663" d="M168 473q0 33 15.5 63.5t41 55 58 40 65.5 15.5q51 0 86-39t35-90q0-33-16.5-62.5t-43-53-59.5-37-63-13.5q-53 0-86 35t-33 86z"/><glyph unicode="…" horiz-adv-x="1292" d="M20 96q0 33 15.5 63.5t41 55.5 57.5 40 67 15q51 0 86-38.5t35-90.5q0-33-16.5-62.5t-43-53-59.5-37-66-13.5q-53 0-85 35t-32 86zm390 0q0 33 15 63.5t41 55.5 58.5 40 65.5 15q51 0 86-38.5t35-90.5q0-33-16.5-62.5t-43-53-59.5-37-66-13.5q-53 0-84.5 35t-31.5 86zm387 0q0 33 15 63.5t41 55.5 58.5 40 65.5 15q51 0 86-38.5t35-90.5q0-33-17.5-62.5t-44-53-59.5-37-64-13.5q-53 0-84.5 35t-31.5 86z"/><glyph horiz-adv-x="346"/><glyph unicode="‹" horiz-adv-x="684" d="M70 489l2 11 350 360h229l-372-362-3-11 220-362h-232z"/><glyph unicode="›" horiz-adv-x="684" d="M2 125l375 362 2 11-221 362h229l199-360-2-11-351-364h-231z"/><glyph horiz-adv-x="434"/><glyph unicode="€" horiz-adv-x="1257" d="M61 461l35 168h150q6 57 20 108h-145l35 168h168q45 98 109.5 182t147.5 144.5 181 95.5 213 35q92 0 182-23.5t148-64.5l-113-227q-41 49-107.5 81.5t-162.5 32.5q-74 0-131.5-20.5t-101.5-56-75.5-82-54.5-97.5h455l-35-168h-471q-6-29-10-56.5t-6-51.5h462l-34-168h-435q6-139 60.5-212t152.5-73q104 0 201.5 37t163.5 94l18-207q-84-49-190.5-87t-233.5-38q-109 0-186.5 38t-129.5 104.5-77.5 154.5-27.5 189h-175z"/><glyph unicode="™" horiz-adv-x="1449" d="M260 1206l29 131h442l-29-131h-151l-96-450h-140l97 450h-152zm414-450l125 581h184l57-411 232 411h182l-125-581h-139l72 336-195-336h-133l-49 338-72-338h-139z"/><glyph unicode="" horiz-adv-x="940" d="M0 940h940v-940h-940v940z"/><glyph unicode="ﬁ" horiz-adv-x="1073" d="M-47-532l285 1337h-117l24 117 121 18q25 117 49.5 199t49 138 47 91 43.5 57q51 53 122.5 77t151.5 24q25 0 59.5-3t75.5-14.5 86-32 88-53.5l-127-166-49 37q-25 18-51.5 33.5t-59 26-71.5 10.5q-27 0-48.5-12.5t-40-45-35.5-88-36-141.5l-28-135h180l-29-137h-180l-285-1337h-225zm637 532l201 942h225l-201-942h-225z"/><glyph unicode="ﬂ" horiz-adv-x="1093" d="M-47-532l285 1337h-117l24 117 121 18q25 117 49.5 199t49 138 47 91 43.5 57q51 53 122.5 77t151.5 24q47 0 136-12.5t182-47.5l98 50-322-1516h-225l281 1319q-41 16-89.5 30.5t-109.5 14.5q-27 0-48.5-12.5t-40-45-35.5-88-36-141.5l-28-135h180l-29-137h-180l-285-1337h-225z"/><glyph unicode="ﬃ" horiz-adv-x="1775" d="M1290 0l201 942h225l-200-942h-226zm230 1221q0 33 15.5 63.5t41 55 57 40 66.5 15.5q51 0 86-39t35-90q0-33-17.5-62.5t-44-53.5-59.5-37-63-13q-53 0-85 35t-32 86zm-932-1756l285 1340h-117l24 117 121 18q25 117 49.5 199t49 138 47 91 43.5 57q51 53 122.5 77t151.5 24q10 0 32.5-1t49.5-5 54.5-13.5 49.5-23.5l-88-174q-16 12-59 33.5t-88 21.5q-27 0-48.5-12.5t-40-45-35.5-88-36-141.5l-28-135h180l-29-137h-180l-285-1340h-225zm-635 0l285 1340h-117l24 117 121 18q25 117 49.5 199t49 138 47 91 43.5 57q51 53 122.5 77t151.5 24q10 0 32.5-1t49.5-5 54.5-13.5 49.5-23.5l-88-174q-16 12-59 33.5t-88 21.5q-27 0-48.5-12.5t-40-45-35.5-88-36-141.5l-28-135h180l-29-137h-180l-285-1340h-225z"/><glyph unicode="ﬄ" horiz-adv-x="1800" d="M1305 0l321 1516h226l-322-1516h-225zm-717-535l285 1340h-117l24 117 121 18q25 117 49.5 199t49 138 47 91 43.5 57q51 53 122.5 77t151.5 24q10 0 32.5-1t49.5-5 54.5-13.5 49.5-23.5l-88-174q-16 12-59 33.5t-88 21.5q-27 0-48.5-12.5t-40-45-35.5-88-36-141.5l-28-135h180l-29-137h-180l-285-1340h-225zm-635 0l285 1340h-117l24 117 121 18q25 117 49.5 199t49 138 47 91 43.5 57q51 53 122.5 77t151.5 24q10 0 32.5-1t49.5-5 54.5-13.5 49.5-23.5l-88-174q-16 12-59 33.5t-88 21.5q-27 0-48.5-12.5t-40-45-35.5-88-36-141.5l-28-135h180l-29-137h-180l-285-1340h-225z"/></font>
</defs>
</svg>
